<svg width="334" height="334" viewBox="0 0 334 334" fill="none" xmlns="http://www.w3.org/2000/svg">
<g clip-path="url(#clip0_1445_1675)">
<path d="M76.381 99.1289C76.2964 99.2385 76.1836 99.3231 76.0547 99.3736C75.9258 99.4242 75.7856 99.4388 75.6491 99.4159C75.5066 99.4001 75.3706 99.3474 75.2547 99.263C75.1388 99.1786 75.0469 99.0655 74.9881 98.9347L69.5405 88.6562C69.4472 88.5102 69.4031 88.3382 69.4147 88.1653C69.4262 87.9924 69.4929 87.8278 69.6048 87.6955C69.7092 87.5556 69.8577 87.4548 70.0264 87.4095C70.195 87.3641 70.3741 87.3768 70.5346 87.4455L81.714 90.7902C81.8509 90.826 81.9766 90.8957 82.0796 90.9927C82.1826 91.0898 82.2595 91.2112 82.3033 91.3458C82.3468 91.4754 82.355 91.6143 82.3271 91.7482C82.2993 91.8821 82.2363 92.0062 82.1447 92.1077C82.0422 92.2328 81.9056 92.3254 81.7515 92.3744C81.5937 92.4286 81.4225 92.4297 81.264 92.3775L71.1298 89.2L71.4133 88.8546L76.4735 98.2179C76.5559 98.3695 76.5873 98.5437 76.5628 98.7145C76.5404 98.8664 76.4776 99.0095 76.381 99.1289ZM74.792 96.7293L74.1348 95.3619L78.1121 90.5176L79.5824 90.9036L74.792 96.7293Z" fill="#004E77"/>
<path d="M85.1268 88.9498C85.0491 89.0267 84.9568 89.0875 84.8554 89.1284C84.754 89.1694 84.6454 89.1897 84.536 89.1883C84.4266 89.1869 84.3186 89.1637 84.2183 89.1201C84.118 89.0765 84.0273 89.0134 83.9516 88.9344L76.3906 81.1835C76.3097 81.1069 76.2457 81.0141 76.2029 80.9113C76.16 80.8084 76.1392 80.6977 76.1417 80.5863C76.1405 80.4193 76.19 80.2558 76.2838 80.1176C76.3776 79.9794 76.5112 79.8729 76.6669 79.8123C76.8225 79.7517 76.9929 79.7398 77.1555 79.7783C77.3181 79.8167 77.4652 79.9036 77.5773 80.0274L80.7811 83.3139L82.6526 81.4795L83.6793 82.5328L81.8084 84.3657L85.1354 87.7768C85.2148 87.8533 85.2781 87.9449 85.3215 88.0462C85.3649 88.1475 85.3875 88.2565 85.388 88.3667C85.3869 88.4766 85.3632 88.5852 85.3182 88.6855C85.2733 88.7858 85.2081 88.8758 85.1268 88.9498ZM90.958 82.972C90.9537 83.083 90.9261 83.1918 90.877 83.2914C90.828 83.3911 90.7585 83.4793 90.6732 83.5504C90.5937 83.6328 90.497 83.6969 90.39 83.7379C90.283 83.7789 90.1683 83.796 90.054 83.7878L82.033 83.0759L81.4503 75.4687C81.4388 75.3573 81.4528 75.2448 81.4912 75.1396C81.5296 75.0344 81.5914 74.9393 81.672 74.8616C81.7464 74.7815 81.8382 74.7196 81.9402 74.6806C82.0423 74.6415 82.152 74.6264 82.2608 74.6363C82.4602 74.6418 82.6496 74.7247 82.789 74.8674C82.9217 75.0187 82.9956 75.2127 82.9972 75.414L83.3841 81.6039L90.198 82.1933C90.3999 82.2019 90.5934 82.2761 90.7493 82.4047C90.8248 82.4773 90.8828 82.5661 90.919 82.6644C90.9551 82.7626 90.9685 82.8678 90.958 82.972Z" fill="#004E77"/>
<path d="M104.093 76.5272C104.007 76.5941 103.908 76.6432 103.802 76.6715C103.696 76.6998 103.586 76.7068 103.478 76.692C103.369 76.6773 103.265 76.6411 103.17 76.5857C103.076 76.5302 102.994 76.4565 102.928 76.3689L101.713 74.7663L94.2801 80.4199C94.1935 80.4871 94.0944 80.5363 93.9886 80.5646C93.8827 80.593 93.7723 80.6 93.6637 80.5852C93.5551 80.5704 93.4506 80.5341 93.3562 80.4784C93.2618 80.4227 93.1794 80.3488 93.114 80.2609L86.56 71.6416C86.4882 71.5548 86.4355 71.4539 86.4054 71.3455C86.3753 71.237 86.3684 71.1234 86.3853 71.012C86.4018 70.9044 86.4396 70.801 86.4964 70.7081C86.5532 70.6151 86.6278 70.5343 86.716 70.4703C86.8007 70.3991 86.8994 70.3463 87.0058 70.3155C87.1121 70.2846 87.2237 70.2764 87.3334 70.2913C87.4432 70.3062 87.5485 70.3439 87.6428 70.402C87.7371 70.4601 87.8181 70.5373 87.8807 70.6286L94.0484 78.7376L99.4965 74.6096L93.3283 66.4911C93.2575 66.4051 93.2055 66.3053 93.1758 66.198C93.146 66.0907 93.1392 65.9783 93.1556 65.8682C93.1732 65.701 93.2415 65.5432 93.3513 65.416C93.4611 65.2887 93.6072 65.198 93.77 65.1562C93.9328 65.1143 94.1046 65.1232 94.2622 65.1816C94.4198 65.2401 94.5558 65.3454 94.6519 65.4833L100.817 73.593L101.48 73.0906C101.565 73.0193 101.664 72.9666 101.77 72.9357C101.876 72.9049 101.988 72.8967 102.098 72.9116C102.207 72.9265 102.313 72.9642 102.407 73.0223C102.501 73.0804 102.582 73.1576 102.645 73.2489L104.252 75.3611C104.32 75.4466 104.371 75.5448 104.401 75.6499C104.431 75.7551 104.439 75.8652 104.426 75.9737C104.412 76.0841 104.375 76.1903 104.318 76.2856C104.261 76.3809 104.184 76.4632 104.093 76.5272Z" fill="#004E77"/>
<path d="M106.298 71.7543C106.102 71.8677 105.87 71.8999 105.651 71.844C105.542 71.8201 105.44 71.7731 105.351 71.7063C105.262 71.6395 105.189 71.5544 105.136 71.4567L99.7792 62.0501C99.7202 61.9543 99.6829 61.8467 99.67 61.735C99.657 61.6232 99.6687 61.51 99.7042 61.4033C99.7719 61.1886 99.9198 61.0084 100.117 60.9001C100.208 60.8419 100.311 60.8039 100.419 60.7887C100.526 60.7736 100.635 60.7816 100.739 60.8124C100.949 60.8823 101.123 61.0311 101.225 61.2273L105.714 69.1012L107.635 56.9662C107.654 56.8449 107.7 56.7293 107.77 56.6286C107.84 56.5278 107.933 56.4444 108.04 56.3849C108.134 56.3251 108.239 56.2857 108.349 56.2692C108.459 56.2526 108.571 56.2593 108.678 56.2888C108.785 56.3182 108.885 56.3699 108.971 56.4403C109.057 56.5107 109.127 56.5984 109.177 56.6977L114.534 66.1043C114.59 66.1979 114.627 66.3018 114.643 66.4098C114.659 66.5178 114.653 66.6279 114.625 66.7336C114.583 66.8943 114.493 67.0385 114.368 67.1479C114.242 67.2572 114.087 67.3267 113.922 67.3475C113.757 67.3683 113.59 67.3394 113.441 67.2645C113.293 67.1896 113.17 67.0721 113.089 66.927L108.609 59.0585L106.717 71.1782C106.691 71.2958 106.641 71.4064 106.568 71.5024C106.498 71.6052 106.405 71.6912 106.298 71.7543Z" fill="#004E77"/>
<path d="M125.55 62.2062C125.45 62.2493 125.342 62.272 125.232 62.2729C125.123 62.2738 125.015 62.2529 124.913 62.2115C124.812 62.1701 124.72 62.109 124.643 62.0317C124.565 61.9544 124.504 61.8625 124.463 61.7613L122.925 58.0882L120.139 59.2497L120.077 59.103C119.407 59.3995 118.677 59.5355 117.946 59.5003C117.293 59.4686 116.661 59.2581 116.119 58.8918C115.578 58.5188 115.16 57.9944 114.916 57.3845C114.627 56.7302 114.523 56.0089 114.615 55.2995C114.709 54.6242 114.985 53.9873 115.413 53.4575C115.881 52.8875 116.487 52.4462 117.173 52.1755L120.723 50.6838C120.823 50.6372 120.931 50.6115 121.042 50.6084C121.152 50.6053 121.262 50.6247 121.364 50.6656C121.466 50.709 121.558 50.7724 121.634 50.852C121.711 50.9315 121.771 51.0257 121.81 51.1288L125.993 61.1158C126.037 61.2156 126.061 61.3231 126.064 61.4323C126.066 61.5414 126.047 61.6499 126.007 61.7515C125.967 61.855 125.905 61.9488 125.827 62.0271C125.748 62.1054 125.654 62.1664 125.55 62.2062ZM119.568 57.8974L122.353 56.7351L120.56 52.4264L117.775 53.5887C117.364 53.7513 116.994 54.0048 116.694 54.3302C116.42 54.6336 116.244 55.0125 116.188 55.4176C116.136 55.8756 116.21 56.3391 116.404 56.7577C116.557 57.1652 116.826 57.5196 117.176 57.7784C117.504 58.0046 117.89 58.1306 118.288 58.141C118.727 58.1541 119.164 58.071 119.568 57.8974ZM118.986 64.9547C118.855 65.0215 118.706 65.0478 118.56 65.0303C118.414 65.0128 118.276 64.9523 118.165 64.8565C118.049 64.7546 117.963 64.6228 117.917 64.4754C117.871 64.3281 117.866 64.1709 117.903 64.021L118.691 59.1146L120.359 58.9183L119.495 64.3068C119.476 64.4536 119.417 64.5925 119.326 64.7088C119.234 64.8176 119.118 64.902 118.986 64.9547Z" fill="#004E77"/>
<path d="M135.129 58.9695C134.996 59.0076 134.854 59.0086 134.72 58.9722C134.586 58.9357 134.464 58.8634 134.368 58.7629C134.264 58.6646 134.187 58.5409 134.145 58.404C134.104 58.2671 134.098 58.1217 134.13 57.9822L135.986 46.485C136.054 46.0862 136.263 45.8417 136.616 45.7581C136.783 45.709 136.963 45.7178 137.125 45.7831C137.287 45.8484 137.423 45.9665 137.51 46.1181L144.419 55.521C144.506 55.6322 144.564 55.7636 144.588 55.9031C144.612 56.0426 144.6 56.1858 144.555 56.3197C144.511 56.4502 144.432 56.5666 144.328 56.6568C144.224 56.747 144.098 56.8076 143.962 56.8325C143.805 56.8705 143.64 56.8621 143.487 56.8084C143.329 56.7556 143.191 56.6531 143.096 56.5162L136.929 47.8698L137.363 47.765L135.757 58.286C135.731 58.4565 135.65 58.6139 135.527 58.7345C135.418 58.8477 135.281 58.929 135.129 58.9695ZM135.31 56.0961L135.609 54.6087L141.703 53.1369L142.648 54.3241L135.31 56.0961Z" fill="#004E77"/>
<path d="M148.246 56.114C148.138 56.1285 148.028 56.1214 147.922 56.093C147.817 56.0646 147.718 56.0156 147.632 55.9487C147.545 55.8818 147.473 55.7984 147.419 55.7034C147.365 55.6084 147.331 55.5037 147.318 55.3952L145.944 44.6569C145.925 44.5472 145.93 44.4348 145.958 44.3271C145.986 44.2194 146.036 44.1186 146.105 44.0314C146.248 43.8616 146.45 43.7522 146.67 43.725C146.89 43.6978 147.113 43.7548 147.293 43.8847C147.38 43.953 147.452 44.0384 147.504 44.1357C147.557 44.2329 147.589 44.34 147.599 44.4501L148.182 49.0019L150.781 48.6713L150.968 50.1319L148.368 50.4625L148.972 55.1899C148.988 55.2977 148.983 55.4076 148.957 55.5134C148.93 55.6191 148.883 55.7186 148.818 55.806C148.75 55.8945 148.663 55.9677 148.565 56.0207C148.466 56.0738 148.358 56.1056 148.246 56.114ZM156.5 54.8491C156.35 55.0174 156.141 55.1221 155.916 55.142C155.691 55.162 155.467 55.0956 155.29 54.9564L149.31 49.5623L153.421 43.1365C153.48 43.0404 153.561 42.959 153.656 42.8985C153.751 42.8381 153.859 42.8002 153.971 42.7876C154.08 42.7674 154.191 42.7723 154.297 42.8021C154.403 42.8318 154.5 42.8856 154.582 42.9593C154.738 43.0849 154.839 43.2657 154.864 43.464C154.878 43.6639 154.82 43.8623 154.702 44.0239L151.285 49.2015L156.369 53.7747C156.525 53.903 156.635 54.0781 156.683 54.2739C156.698 54.3774 156.689 54.4828 156.657 54.5824C156.626 54.682 156.572 54.7731 156.5 54.8491Z" fill="#004E77"/>
<path d="M170.876 57.5954C170.767 57.5969 170.658 57.5765 170.557 57.5356C170.455 57.4947 170.363 57.4339 170.285 57.357C170.207 57.28 170.146 57.1884 170.104 57.0874C170.062 56.9863 170.04 56.878 170.041 56.7686L170.03 54.7534L160.689 54.8007C160.58 54.8023 160.471 54.7821 160.369 54.7412C160.268 54.7003 160.175 54.6396 160.097 54.5625C160.019 54.4855 159.958 54.3937 159.916 54.2925C159.874 54.1913 159.852 54.0827 159.853 53.9731L159.796 43.1472C159.799 42.9833 159.849 42.8237 159.94 42.6877C160.032 42.5517 160.161 42.4451 160.311 42.3808C160.462 42.3165 160.628 42.2971 160.79 42.3252C160.951 42.3532 161.101 42.4274 161.222 42.5388C161.299 42.6178 161.36 42.7116 161.4 42.8145C161.44 42.9175 161.46 43.0275 161.456 43.138L161.515 53.3233L168.361 53.2878L168.308 43.0996C168.303 42.9887 168.321 42.8779 168.362 42.7746C168.403 42.6713 168.465 42.5777 168.544 42.5C168.622 42.4236 168.715 42.3635 168.816 42.323C168.917 42.2826 169.026 42.2627 169.135 42.2644C169.245 42.2587 169.356 42.2761 169.459 42.3156C169.563 42.355 169.657 42.4156 169.736 42.4935C169.815 42.5714 169.876 42.6649 169.917 42.7679C169.957 42.871 169.976 42.9813 169.972 43.092L170.024 53.2779L170.855 53.2738C170.966 53.2678 171.077 53.285 171.18 53.3244C171.284 53.3638 171.378 53.4243 171.457 53.5023C171.536 53.5802 171.597 53.6738 171.638 53.7769C171.678 53.8801 171.697 53.9906 171.692 54.1013L171.705 56.7558C171.709 56.8649 171.69 56.9735 171.651 57.0753C171.612 57.1771 171.552 57.2699 171.476 57.3481C171.399 57.4292 171.306 57.4931 171.203 57.5357C171.099 57.5783 170.988 57.5987 170.876 57.5954Z" fill="#004E77"/>
<path d="M175.509 55.1059C175.396 55.0932 175.288 55.0585 175.188 55.0037C175.089 54.9489 175.002 54.875 174.932 54.7864C174.859 54.7021 174.806 54.6031 174.774 54.4963C174.743 54.3895 174.736 54.2773 174.752 54.1672L176.137 43.4327C176.147 43.319 176.182 43.2089 176.24 43.1104C176.298 43.0119 176.377 42.9274 176.471 42.863C176.655 42.7329 176.882 42.6786 177.105 42.7113C177.213 42.7199 177.318 42.7516 177.412 42.8041C177.507 42.8566 177.589 42.9287 177.653 43.0156C177.78 43.1981 177.829 43.4233 177.789 43.6418L176.637 52.6404L185.481 44.1065C185.568 44.0207 185.674 43.9561 185.791 43.9176C185.907 43.8791 186.03 43.8677 186.152 43.8844C186.262 43.8934 186.369 43.9251 186.466 43.9776C186.563 44.0302 186.648 44.1023 186.716 44.1895C186.784 44.2767 186.833 44.377 186.86 44.4842C186.887 44.5913 186.891 44.7028 186.872 44.8116L185.493 55.5491C185.482 55.6576 185.449 55.7628 185.397 55.8585C185.345 55.9541 185.273 56.0382 185.188 56.1059C185.101 56.1749 185 56.2251 184.893 56.253C184.785 56.2809 184.673 56.2861 184.563 56.2681C184.454 56.2552 184.35 56.221 184.254 56.1673C184.159 56.1136 184.076 56.0415 184.009 55.9552C183.942 55.8689 183.892 55.7702 183.864 55.6647C183.835 55.5592 183.828 55.4491 183.842 55.3408L184.984 46.3591L176.18 54.9007C176.09 54.9792 175.983 55.0371 175.868 55.0703C175.753 55.1076 175.63 55.1198 175.509 55.1059Z" fill="#004E77"/>
<path d="M196.629 59.0728C196.524 59.0459 196.425 58.9984 196.338 58.9331C196.251 58.8677 196.178 58.7859 196.123 58.6921C196.067 58.5984 196.031 58.4947 196.016 58.387C196.002 58.2792 196.008 58.1696 196.036 58.0645L197.023 54.2059L194.092 53.4576L194.137 53.2951C193.424 53.1276 192.759 52.7969 192.196 52.3292C191.692 51.9129 191.311 51.3669 191.095 50.7501C190.889 50.1261 190.871 49.4554 191.044 48.8214C191.207 48.1252 191.559 47.4872 192.06 46.9768C192.541 46.4944 193.145 46.1525 193.806 45.9881C194.526 45.8113 195.28 45.8228 195.995 46.0214L199.73 46.9761C199.838 46.9992 199.939 47.0443 200.028 47.1087C200.118 47.1731 200.192 47.2552 200.248 47.35C200.304 47.4448 200.34 47.5501 200.353 47.6593C200.365 47.7685 200.356 47.8792 200.324 47.9844L197.644 58.4713C197.619 58.5778 197.574 58.6784 197.51 58.7671C197.446 58.8558 197.365 58.931 197.272 58.9882C197.176 59.0461 197.07 59.0835 196.959 59.098C196.849 59.1126 196.736 59.104 196.629 59.0728ZM194.451 52.0292L197.38 52.7768L198.537 48.2531L195.601 47.5076C195.173 47.3903 194.724 47.3714 194.287 47.4522C193.884 47.5289 193.513 47.7261 193.224 48.0177C192.907 48.3517 192.687 48.7663 192.589 49.2164C192.466 49.6342 192.467 50.0786 192.592 50.4957C192.716 50.8753 192.949 51.2103 193.261 51.4592C193.611 51.7348 194.017 51.9294 194.451 52.0292ZM189.734 57.3087C189.589 57.2839 189.455 57.2162 189.348 57.1142C189.242 57.0123 189.169 56.8808 189.138 56.7368C189.107 56.5857 189.117 56.4289 189.169 56.2834C189.221 56.138 189.311 56.0096 189.431 55.9123L193.018 52.4709L194.464 53.3189L190.531 57.1013C190.427 57.2037 190.298 57.2767 190.157 57.3129C190.018 57.3469 189.872 57.3454 189.734 57.3087Z" fill="#004E77"/>
<path d="M206.217 62.2696C206.088 62.2195 205.975 62.1354 205.89 62.0264C205.805 61.9175 205.752 61.7876 205.734 61.6505C205.711 61.5091 205.724 61.364 205.774 61.2295C205.823 61.095 205.907 60.9756 206.016 60.8833L214.421 52.8412C214.536 52.7117 214.69 52.6224 214.859 52.5864C215.028 52.5505 215.205 52.5698 215.362 52.6415C215.528 52.702 215.667 52.8172 215.759 52.9679C215.85 53.1186 215.886 53.2958 215.863 53.4703L215.7 65.1379C215.703 65.2793 215.671 65.4193 215.607 65.545C215.542 65.6708 215.447 65.7782 215.329 65.8575C215.215 65.9348 215.083 65.9804 214.946 65.9895C214.808 65.9986 214.671 65.971 214.548 65.9095C214.4 65.8444 214.274 65.7383 214.184 65.6036C214.092 65.4658 214.046 65.3019 214.054 65.1361L214.342 54.5081L214.753 54.6862L207.124 62.1063C207.001 62.2275 206.842 62.3056 206.67 62.3288C206.517 62.3503 206.36 62.3299 206.217 62.2696ZM208.086 60.0798L209.221 59.075L214.976 61.5835L215.015 63.1036L208.086 60.0798Z" fill="#004E77"/>
<path d="M218.407 67.9061C218.311 67.8527 218.227 67.7807 218.16 67.6944C218.092 67.6082 218.043 67.5093 218.014 67.4037C217.985 67.2981 217.978 67.1877 217.992 67.0792C218.006 66.9706 218.042 66.866 218.097 66.7714L223.47 57.3722C223.522 57.2739 223.593 57.1875 223.68 57.1183C223.767 57.0492 223.868 56.9988 223.975 56.9705C224.081 56.9434 224.191 56.9376 224.299 56.9534C224.407 56.9693 224.511 57.0064 224.605 57.0627C224.703 57.1133 224.79 57.1837 224.859 57.2694C224.929 57.3551 224.981 57.4543 225.01 57.5608C225.038 57.6678 225.044 57.7795 225.028 57.889C225.011 57.9984 224.973 58.1034 224.914 58.1974L222.637 62.1815L224.914 63.4832L224.178 64.7582L221.906 63.4609L219.541 67.5981C219.489 67.6942 219.418 67.779 219.333 67.8476C219.248 67.9162 219.151 67.9672 219.046 67.9977C218.939 68.0276 218.827 68.0349 218.717 68.0191C218.607 68.0034 218.501 67.9649 218.407 67.9061ZM225.755 71.8743C225.533 71.9177 225.303 71.8753 225.112 71.7557C224.921 71.6361 224.782 71.4483 224.723 71.2302L223.204 63.317L230.363 60.6684C230.467 60.6269 230.579 60.6095 230.691 60.6176C230.802 60.6256 230.911 60.659 231.008 60.7152C231.103 60.7649 231.186 60.8354 231.251 60.9216C231.315 61.0077 231.36 61.1072 231.38 61.2128C231.429 61.4069 231.401 61.6124 231.302 61.7863C231.193 61.9543 231.027 62.078 230.835 62.1354L224.994 64.2127L226.298 70.9244C226.345 71.1206 226.327 71.3268 226.247 71.5122C226.197 71.6044 226.128 71.6842 226.043 71.7459C225.958 71.8075 225.861 71.8494 225.758 71.8684L225.755 71.8743Z" fill="#004E77"/>
<path d="M235.588 82.7159C235.5 82.6513 235.425 82.5698 235.369 82.476C235.312 82.3823 235.275 82.2783 235.259 82.17C235.243 82.0617 235.249 81.9513 235.276 81.8453C235.303 81.7393 235.351 81.6398 235.418 81.5526L236.621 79.9359L229.135 74.3521C229.045 74.289 228.97 74.2083 228.913 74.1151C228.855 74.0219 228.818 73.9181 228.802 73.8099C228.785 73.7014 228.79 73.5905 228.818 73.4842C228.846 73.378 228.896 73.2787 228.964 73.1925L235.434 64.5082C235.496 64.4169 235.577 64.3396 235.671 64.2811C235.765 64.2226 235.87 64.1841 235.979 64.1681C236.145 64.1395 236.315 64.162 236.467 64.2324C236.619 64.3029 236.746 64.418 236.831 64.5625C236.916 64.7069 236.955 64.8738 236.942 65.0409C236.93 65.2081 236.867 65.3675 236.762 65.4979L230.668 73.6713L236.154 77.7634L242.26 69.5982C242.322 69.5068 242.403 69.4293 242.497 69.3708C242.591 69.3122 242.696 69.2739 242.806 69.2582C242.914 69.2444 243.023 69.2522 243.129 69.2812C243.234 69.3102 243.332 69.3597 243.418 69.4269C243.51 69.4886 243.588 69.5689 243.646 69.6626C243.705 69.7562 243.744 69.8612 243.76 69.9707C243.776 70.0802 243.769 70.1918 243.739 70.2984C243.709 70.4049 243.657 70.5041 243.587 70.5894L237.502 78.7577L238.172 79.2567C238.263 79.3197 238.341 79.4007 238.399 79.4947C238.458 79.5888 238.497 79.6938 238.514 79.8034C238.529 79.9127 238.521 80.0239 238.491 80.1301C238.461 80.2362 238.41 80.3352 238.341 80.4207L236.753 82.5497C236.69 82.6389 236.609 82.7144 236.516 82.7716C236.423 82.8288 236.319 82.8665 236.211 82.8825C236.101 82.9003 235.989 82.8946 235.882 82.8659C235.774 82.8372 235.674 82.786 235.588 82.7159Z" fill="#004E77"/>
<path d="M240.782 83.5123C240.701 83.4356 240.635 83.3435 240.589 83.2413C240.544 83.1392 240.519 83.029 240.516 82.9171C240.509 82.8061 240.526 82.6948 240.566 82.5909C240.605 82.487 240.667 82.3928 240.746 82.3145L248.312 74.5729C248.388 74.4908 248.482 74.4261 248.585 74.3834C248.689 74.3407 248.8 74.321 248.912 74.3257C249.137 74.3323 249.351 74.4251 249.51 74.5849C249.592 74.6564 249.658 74.7448 249.703 74.8441C249.747 74.9434 249.77 75.0512 249.77 75.1601C249.761 75.3805 249.666 75.5886 249.505 75.7395L243.165 82.2193L255.363 80.7222C255.484 80.7069 255.608 80.7197 255.724 80.7595C255.84 80.7994 255.946 80.8652 256.032 80.9521C256.115 81.0257 256.182 81.1159 256.227 81.2167C256.273 81.3175 256.298 81.4268 256.299 81.5375C256.3 81.6483 256.278 81.758 256.234 81.8598C256.19 81.9615 256.126 82.0529 256.044 82.1282L248.478 89.8698C248.404 89.9494 248.315 90.0133 248.216 90.0579C248.117 90.1024 248.01 90.1267 247.902 90.1292C247.735 90.1329 247.57 90.0866 247.43 89.9962C247.29 89.9059 247.18 89.7756 247.114 89.6221C247.048 89.4686 247.03 89.2991 247.062 89.1352C247.094 88.9713 247.173 88.8207 247.291 88.7026L253.619 82.2293L241.444 83.7495C241.324 83.7555 241.203 83.7371 241.09 83.6954C240.977 83.6536 240.873 83.5894 240.785 83.5065L240.782 83.5123Z" fill="#004E77"/>
<path d="M250.816 93.8404C250.715 93.7341 250.648 93.5999 250.623 93.4551C250.598 93.3103 250.618 93.1614 250.678 93.0277C250.744 92.8879 250.847 92.769 250.976 92.6839C251.105 92.5988 251.254 92.5508 251.409 92.5453L256.356 91.949L257.002 93.4999L251.582 94.1473C251.436 94.1698 251.286 94.1512 251.15 94.0935C251.019 94.0376 250.905 93.9507 250.816 93.8404ZM255.261 99.3992C255.192 99.3144 255.14 99.2167 255.109 99.1117C255.078 99.0068 255.068 98.8967 255.08 98.7879C255.092 98.6791 255.126 98.5738 255.179 98.4781C255.232 98.3824 255.304 98.2983 255.39 98.2306L258.497 95.7509L256.615 93.3803L256.74 93.28C256.271 92.7178 255.94 92.0539 255.773 91.3412C255.624 90.7034 255.655 90.0371 255.861 89.4156C256.072 88.7952 256.462 88.251 256.982 87.851C257.533 87.3919 258.199 87.0937 258.909 86.989C259.584 86.8925 260.272 86.9828 260.9 87.25C261.578 87.5437 262.17 88.0055 262.62 88.5916L265.025 91.6025C265.099 91.6854 265.154 91.7827 265.188 91.8883C265.221 91.9939 265.232 92.1053 265.22 92.2154C265.208 92.3255 265.172 92.4318 265.116 92.5274C265.06 92.623 264.985 92.7057 264.895 92.7704L256.439 99.5311C256.356 99.6011 256.259 99.6537 256.155 99.686C256.051 99.7183 255.941 99.7297 255.832 99.7193C255.72 99.7096 255.611 99.676 255.512 99.6209C255.414 99.5657 255.328 99.4901 255.261 99.3992ZM257.76 92.4626L259.647 94.8244L263.294 91.9072L261.411 89.5454C261.14 89.1938 260.792 88.9083 260.394 88.7106C260.027 88.5292 259.614 88.4631 259.209 88.521C258.756 88.5995 258.333 88.7988 257.985 89.0979C257.636 89.3584 257.37 89.7135 257.217 90.1211C257.087 90.4987 257.071 90.906 257.17 91.2928C257.278 91.7214 257.48 92.1208 257.76 92.4626Z" fill="#004E77"/>
<path d="M260.991 107.717C260.919 107.598 260.881 107.462 260.88 107.323C260.879 107.185 260.916 107.048 260.987 106.929C261.053 106.802 261.151 106.694 261.272 106.617C261.392 106.539 261.531 106.495 261.674 106.487L273.229 105.13C273.398 105.096 273.574 105.117 273.731 105.19C273.888 105.264 274.017 105.386 274.1 105.538C274.193 105.685 274.234 105.86 274.216 106.034C274.197 106.207 274.121 106.37 273.999 106.494L266.843 115.712C266.759 115.826 266.648 115.918 266.52 115.978C266.392 116.039 266.25 116.066 266.109 116.057C265.971 116.05 265.838 116.007 265.723 115.932C265.608 115.857 265.515 115.752 265.454 115.629C265.375 115.487 265.338 115.326 265.348 115.165C265.356 114.998 265.417 114.839 265.521 114.709L272.153 106.416L272.374 106.805L261.813 108.135C261.641 108.156 261.468 108.122 261.318 108.037C261.181 107.962 261.068 107.852 260.991 107.717ZM263.802 107.104L265.315 106.986L268.396 112.445L267.511 113.679L263.802 107.104Z" fill="#004E77"/>
<path d="M267.322 119.558C267.278 119.458 267.255 119.35 267.253 119.24C267.251 119.131 267.271 119.022 267.312 118.92C267.353 118.819 267.413 118.726 267.49 118.649C267.567 118.571 267.659 118.509 267.76 118.467L277.718 114.213C277.818 114.165 277.928 114.14 278.039 114.137C278.15 114.135 278.26 114.156 278.363 114.198C278.464 114.24 278.555 114.302 278.631 114.38C278.708 114.457 278.768 114.549 278.809 114.65C278.858 114.75 278.885 114.859 278.889 114.97C278.893 115.081 278.873 115.191 278.832 115.294C278.791 115.397 278.728 115.49 278.649 115.567C278.57 115.645 278.475 115.705 278.371 115.743L274.148 117.545L275.179 119.955L273.826 120.534L272.796 118.122L268.412 119.995C268.313 120.04 268.206 120.066 268.097 120.069C267.987 120.072 267.879 120.054 267.777 120.014C267.674 119.974 267.58 119.913 267.501 119.834C267.423 119.756 267.362 119.661 267.322 119.558ZM270.795 127.153C270.592 127.053 270.434 126.88 270.354 126.669C270.273 126.458 270.276 126.224 270.361 126.015L273.917 118.792L281.223 120.992C281.331 121.022 281.431 121.076 281.515 121.15C281.599 121.223 281.666 121.315 281.71 121.419C281.758 121.517 281.784 121.626 281.784 121.736C281.784 121.846 281.759 121.955 281.711 122.053C281.633 122.237 281.486 122.384 281.302 122.462C281.114 122.531 280.907 122.529 280.72 122.459L274.807 120.587L271.795 126.726C271.715 126.911 271.577 127.065 271.401 127.164C271.305 127.208 271.201 127.229 271.097 127.227C270.992 127.225 270.889 127.2 270.795 127.153Z" fill="#004E77"/>
<path d="M272.092 141.735C272.061 141.63 272.05 141.52 272.062 141.411C272.073 141.302 272.107 141.196 272.159 141.1C272.212 141.004 272.284 140.92 272.37 140.852C272.456 140.784 272.555 140.733 272.66 140.704L274.596 140.143L271.983 131.17C271.952 131.065 271.941 130.955 271.953 130.846C271.965 130.737 271.998 130.632 272.051 130.536C272.103 130.44 272.175 130.356 272.261 130.288C272.346 130.22 272.445 130.169 272.55 130.14L282.947 127.123C283.053 127.088 283.165 127.076 283.276 127.087C283.387 127.098 283.494 127.132 283.591 127.187C283.686 127.24 283.769 127.313 283.835 127.399C283.902 127.485 283.95 127.584 283.977 127.69C284.013 127.795 284.027 127.906 284.018 128.016C284.008 128.126 283.976 128.233 283.922 128.33C283.869 128.427 283.796 128.512 283.708 128.579C283.62 128.647 283.519 128.695 283.411 128.721L273.628 131.559L275.537 138.132L285.32 135.294C285.426 135.258 285.538 135.246 285.648 135.257C285.759 135.267 285.866 135.301 285.963 135.356C286.153 135.47 286.293 135.651 286.356 135.863C286.418 136.076 286.398 136.304 286.3 136.503C286.246 136.599 286.172 136.683 286.084 136.75C285.996 136.817 285.896 136.865 285.788 136.892L276.005 139.732L276.236 140.529C276.272 140.634 276.286 140.745 276.277 140.855C276.267 140.966 276.235 141.073 276.181 141.17C276.128 141.267 276.055 141.352 275.967 141.419C275.879 141.486 275.778 141.534 275.671 141.56L273.125 142.298C273.021 142.331 272.911 142.343 272.803 142.333C272.694 142.324 272.588 142.292 272.492 142.241C272.394 142.189 272.308 142.117 272.239 142.03C272.17 141.943 272.12 141.843 272.092 141.735Z" fill="#004E77"/>
<path d="M275.754 145.508C275.716 145.285 275.767 145.055 275.897 144.87C275.958 144.777 276.039 144.698 276.133 144.639C276.227 144.58 276.333 144.542 276.444 144.528L287.147 142.9C287.258 142.879 287.372 142.882 287.481 142.91C287.59 142.938 287.691 142.99 287.778 143.061C287.954 143.202 288.069 143.404 288.099 143.627C288.12 143.733 288.119 143.843 288.095 143.949C288.07 144.055 288.023 144.154 287.958 144.24C287.817 144.41 287.616 144.519 287.397 144.543L278.432 145.906L289.075 152.052C289.225 152.137 289.345 152.268 289.417 152.425C289.489 152.582 289.51 152.758 289.477 152.928C289.444 153.097 289.358 153.252 289.232 153.37C289.106 153.489 288.946 153.564 288.774 153.587L278.071 155.215C277.963 155.235 277.853 155.233 277.746 155.21C277.639 155.187 277.538 155.142 277.448 155.08C277.272 154.945 277.155 154.747 277.122 154.527C277.088 154.308 277.141 154.084 277.268 153.902C277.333 153.813 277.415 153.738 277.509 153.682C277.604 153.626 277.709 153.59 277.818 153.576L286.765 152.215L276.138 146.093C276.041 146.027 275.959 145.942 275.897 145.843C275.826 145.742 275.778 145.628 275.754 145.508Z" fill="#004E77"/>
<path d="M277.563 159.788C277.547 159.642 277.574 159.495 277.641 159.365C277.708 159.234 277.812 159.127 277.94 159.055C278.077 158.984 278.231 158.951 278.385 158.961C278.538 158.971 278.687 159.022 278.814 159.11L283.111 161.608L282.696 163.235L277.974 160.495C277.844 160.424 277.736 160.319 277.662 160.191C277.597 160.067 277.563 159.928 277.563 159.788ZM277.773 166.901C277.769 166.792 277.787 166.682 277.826 166.58C277.865 166.477 277.924 166.383 277.999 166.304C278.075 166.224 278.165 166.16 278.266 166.116C278.366 166.072 278.474 166.049 278.584 166.047L282.564 165.93L282.471 162.916L282.631 162.911C282.596 162.179 282.731 161.45 283.026 160.78C283.291 160.182 283.716 159.669 284.253 159.296C284.796 158.925 285.435 158.722 286.092 158.713C286.807 158.679 287.517 158.84 288.146 159.18C288.743 159.509 289.238 159.995 289.579 160.586C289.944 161.227 290.139 161.951 290.147 162.689L290.258 166.542C290.267 166.653 290.252 166.764 290.214 166.868C290.177 166.973 290.119 167.068 290.042 167.148C289.966 167.229 289.874 167.292 289.771 167.335C289.669 167.377 289.559 167.398 289.448 167.396L278.626 167.713C278.517 167.719 278.408 167.703 278.305 167.666C278.202 167.629 278.108 167.573 278.027 167.499C277.946 167.424 277.881 167.332 277.836 167.23C277.792 167.127 277.77 167.017 277.771 166.906L277.773 166.901ZM283.934 162.86L284.027 165.874L288.694 165.737L288.607 162.716C288.599 162.274 288.492 161.839 288.294 161.443C288.109 161.077 287.818 160.776 287.459 160.579C287.05 160.367 286.591 160.27 286.131 160.298C285.696 160.297 285.269 160.421 284.902 160.655C284.569 160.88 284.31 161.198 284.158 161.57C283.99 161.981 283.915 162.425 283.939 162.868L283.934 162.86Z" fill="#004E77"/>
<path d="M277.35 176.995C277.364 176.857 277.415 176.726 277.497 176.615C277.58 176.503 277.691 176.417 277.819 176.364C277.949 176.302 278.092 176.275 278.235 176.286C278.378 176.296 278.515 176.344 278.634 176.424L288.682 182.29C288.839 182.365 288.967 182.487 289.049 182.641C289.13 182.794 289.16 182.969 289.135 183.14C289.12 183.314 289.047 183.478 288.928 183.606C288.808 183.734 288.649 183.817 288.476 183.843L277.214 186.899C277.079 186.94 276.935 186.947 276.796 186.919C276.658 186.891 276.528 186.828 276.42 186.737C276.314 186.648 276.234 186.534 276.187 186.404C276.141 186.274 276.129 186.135 276.154 185.999C276.177 185.839 276.245 185.689 276.35 185.566C276.456 185.436 276.601 185.345 276.763 185.306L287.051 182.67L286.992 183.114L277.756 177.824C277.606 177.738 277.488 177.606 277.419 177.448C277.354 177.306 277.33 177.15 277.35 176.995ZM279.965 178.197L281.244 179.013L280.42 185.227L278.973 185.679L279.965 178.197Z" fill="#004E77"/>
<path d="M275.287 190.26C275.312 190.154 275.358 190.054 275.423 189.965C275.487 189.877 275.569 189.802 275.663 189.746C275.756 189.689 275.86 189.652 275.968 189.636C276.077 189.62 276.187 189.626 276.293 189.653L286.803 192.256C286.912 192.279 287.015 192.324 287.105 192.389C287.195 192.455 287.271 192.538 287.328 192.634C287.383 192.728 287.418 192.832 287.433 192.94C287.447 193.048 287.44 193.158 287.412 193.263C287.39 193.372 287.346 193.475 287.282 193.565C287.218 193.656 287.136 193.732 287.042 193.789C286.947 193.846 286.841 193.883 286.731 193.897C286.621 193.912 286.51 193.903 286.403 193.871L281.948 192.766L281.318 195.312L279.889 194.958L280.521 192.413L275.884 191.261C275.778 191.237 275.677 191.193 275.588 191.13C275.498 191.067 275.423 190.986 275.365 190.894C275.309 190.799 275.273 190.694 275.259 190.585C275.246 190.476 275.255 190.366 275.287 190.26ZM273.481 198.416C273.426 198.319 273.392 198.212 273.381 198.101C273.37 197.99 273.382 197.879 273.417 197.773C273.441 197.66 273.49 197.553 273.56 197.461C273.63 197.369 273.72 197.294 273.822 197.24L281.013 193.618L285.519 199.775C285.587 199.863 285.634 199.965 285.658 200.073C285.681 200.181 285.68 200.294 285.654 200.402C285.634 200.51 285.589 200.612 285.523 200.7C285.457 200.787 285.371 200.859 285.273 200.908C285.1 201.007 284.896 201.034 284.703 200.985C284.511 200.927 284.346 200.802 284.24 200.632L280.647 195.575L274.545 198.66C274.369 198.759 274.166 198.798 273.965 198.771C273.862 198.752 273.765 198.709 273.68 198.647C273.596 198.584 273.527 198.504 273.478 198.411L273.481 198.416Z" fill="#004E77"/>
<path d="M265.711 210.819C265.747 210.715 265.803 210.62 265.877 210.539C265.95 210.458 266.039 210.393 266.139 210.347C266.239 210.302 266.347 210.277 266.457 210.275C266.567 210.273 266.676 210.293 266.777 210.335L268.66 211.054L271.995 202.332C272.033 202.229 272.092 202.135 272.166 202.055C272.241 201.975 272.331 201.911 272.431 201.867C272.531 201.822 272.639 201.798 272.749 201.795C272.858 201.793 272.967 201.812 273.069 201.852L283.182 205.719C283.287 205.754 283.384 205.81 283.467 205.884C283.549 205.958 283.614 206.049 283.659 206.151C283.733 206.302 283.759 206.473 283.734 206.639C283.708 206.806 283.631 206.961 283.515 207.083C283.398 207.205 283.247 207.288 283.082 207.321C282.917 207.354 282.745 207.336 282.59 207.269L273.074 203.629L270.63 210.023L280.145 213.661C280.251 213.697 280.347 213.754 280.429 213.83C280.511 213.906 280.576 213.998 280.62 214.1C280.695 214.251 280.72 214.422 280.695 214.589C280.669 214.756 280.592 214.91 280.475 215.032C280.359 215.154 280.207 215.237 280.042 215.27C279.876 215.303 279.705 215.285 279.55 215.217L270.035 211.578L269.739 212.353C269.704 212.458 269.649 212.555 269.575 212.637C269.501 212.719 269.41 212.785 269.309 212.83C269.208 212.875 269.099 212.899 268.988 212.899C268.877 212.899 268.768 212.876 268.667 212.832L266.188 211.884C266.085 211.847 265.991 211.79 265.91 211.717C265.829 211.644 265.764 211.555 265.718 211.456C265.673 211.356 265.649 211.248 265.648 211.138C265.647 211.029 265.668 210.92 265.711 210.819Z" fill="#004E77"/>
<path d="M266.361 216.039C266.466 215.838 266.645 215.687 266.861 215.618C266.966 215.581 267.077 215.567 267.188 215.577C267.299 215.587 267.406 215.621 267.503 215.675L277.027 220.825C277.128 220.876 277.217 220.947 277.287 221.036C277.357 221.124 277.406 221.226 277.432 221.336C277.488 221.553 277.458 221.784 277.347 221.98C277.301 222.078 277.233 222.164 277.15 222.234C277.067 222.303 276.97 222.354 276.865 222.383C276.651 222.435 276.425 222.401 276.235 222.288L268.257 217.974L273.048 229.29C273.09 229.398 273.11 229.514 273.106 229.63C273.103 229.746 273.075 229.86 273.026 229.965C272.977 230.07 272.906 230.165 272.82 230.242C272.733 230.319 272.631 230.378 272.521 230.415C272.415 230.444 272.303 230.453 272.194 230.438C272.084 230.424 271.978 230.388 271.883 230.333L262.36 225.182C262.263 225.132 262.177 225.064 262.106 224.98C262.036 224.897 261.983 224.8 261.95 224.696C261.917 224.59 261.906 224.479 261.919 224.368C261.932 224.258 261.967 224.151 262.024 224.056C262.075 223.959 262.145 223.874 262.229 223.804C262.314 223.735 262.412 223.683 262.516 223.652C262.621 223.62 262.731 223.61 262.84 223.622C262.949 223.634 263.054 223.667 263.15 223.72L271.113 228.025L266.309 216.737C266.268 216.624 266.252 216.504 266.262 216.385C266.27 216.264 266.303 216.146 266.361 216.039Z" fill="#004E77"/>
<path d="M255.074 234.333C255.136 234.243 255.216 234.167 255.308 234.108C255.401 234.05 255.504 234.01 255.612 233.992C255.719 233.973 255.83 233.977 255.936 234.001C256.043 234.026 256.143 234.072 256.232 234.136L259.482 236.439L261.231 233.972L261.367 234.068C261.777 233.462 262.324 232.961 262.962 232.604C263.535 232.286 264.183 232.132 264.837 232.158C265.493 232.188 266.126 232.411 266.656 232.799C267.247 233.202 267.717 233.759 268.015 234.409C268.293 235.032 268.396 235.718 268.313 236.395C268.218 237.126 267.938 237.821 267.499 238.414L265.27 241.558C265.21 241.652 265.132 241.732 265.039 241.793C264.947 241.854 264.843 241.895 264.734 241.914C264.625 241.932 264.513 241.928 264.406 241.901C264.299 241.873 264.198 241.824 264.111 241.756L255.279 235.497C255.188 235.436 255.111 235.358 255.051 235.266C254.991 235.175 254.95 235.073 254.93 234.965C254.908 234.856 254.91 234.743 254.935 234.634C254.959 234.525 255.007 234.422 255.074 234.333ZM259.188 228.528C259.263 228.401 259.376 228.299 259.509 228.236C259.643 228.173 259.793 228.151 259.939 228.174C260.092 228.198 260.234 228.265 260.351 228.365C260.468 228.466 260.555 228.597 260.603 228.743L262.532 233.324L261.219 234.373L259.1 229.343C259.038 229.209 259.015 229.06 259.032 228.913C259.052 228.774 259.106 228.642 259.188 228.528ZM262.432 234.834L260.684 237.299L264.487 239.999L266.233 237.532C266.498 237.173 266.677 236.758 266.759 236.32C266.83 235.918 266.779 235.504 266.612 235.132C266.412 234.718 266.102 234.366 265.717 234.115C265.37 233.851 264.955 233.692 264.521 233.658C264.122 233.638 263.726 233.735 263.381 233.937C263.004 234.161 262.68 234.463 262.43 234.823L262.432 234.834Z" fill="#004E77"/>
<path d="M248.662 242.138C248.757 242.036 248.877 241.961 249.01 241.922C249.144 241.884 249.285 241.882 249.419 241.917C249.56 241.946 249.69 242.011 249.798 242.105C249.906 242.2 249.987 242.321 250.034 242.456L254.523 253.187C254.603 253.341 254.631 253.516 254.604 253.687C254.577 253.859 254.496 254.017 254.373 254.139C254.256 254.269 254.099 254.356 253.927 254.386C253.755 254.416 253.577 254.387 253.423 254.304L242.591 249.961C242.458 249.913 242.34 249.832 242.246 249.727C242.152 249.621 242.087 249.493 242.056 249.355C242.024 249.222 242.028 249.083 242.068 248.952C242.108 248.821 242.182 248.703 242.282 248.61C242.396 248.495 242.54 248.416 242.698 248.381C242.861 248.341 243.032 248.356 243.185 248.422L252.987 252.511L252.672 252.831L248.486 243.042C248.417 242.883 248.402 242.707 248.443 242.538C248.478 242.387 248.554 242.248 248.662 242.138ZM250.028 244.672L250.558 246.093L246.158 250.557L244.729 250.047L250.028 244.672Z" fill="#004E77"/>
<path d="M232.68 256.901C232.694 256.791 232.731 256.685 232.789 256.59C232.847 256.495 232.924 256.414 233.015 256.351C233.102 256.276 233.204 256.222 233.314 256.191C233.424 256.16 233.539 256.154 233.652 256.172L241.576 257.609L241.467 265.239C241.468 265.351 241.443 265.461 241.395 265.562C241.347 265.663 241.277 265.753 241.19 265.823C241.109 265.897 241.012 265.951 240.906 265.982C240.8 266.012 240.689 266.018 240.581 265.999C240.382 265.974 240.201 265.874 240.076 265.718C239.958 265.556 239.901 265.357 239.918 265.157L240.095 258.957L233.368 257.741C233.167 257.715 232.981 257.624 232.837 257.482C232.769 257.403 232.72 257.31 232.692 257.21C232.665 257.109 232.661 257.004 232.68 256.901ZM239.028 251.479C239.113 251.409 239.21 251.357 239.315 251.325C239.42 251.293 239.53 251.283 239.639 251.294C239.748 251.306 239.853 251.339 239.949 251.391C240.046 251.444 240.13 251.515 240.198 251.601L247.024 260.006C247.097 260.09 247.151 260.188 247.184 260.294C247.217 260.4 247.228 260.511 247.215 260.622C247.202 260.73 247.168 260.835 247.114 260.93C247.06 261.026 246.988 261.109 246.902 261.176C246.819 261.25 246.722 261.305 246.617 261.339C246.511 261.373 246.4 261.385 246.29 261.373C246.18 261.362 246.073 261.327 245.977 261.272C245.881 261.217 245.797 261.143 245.732 261.054L242.839 257.49L240.803 259.143L239.876 258.002L241.912 256.349L238.905 252.648C238.834 252.565 238.781 252.469 238.748 252.365C238.714 252.261 238.702 252.151 238.712 252.043C238.722 251.932 238.756 251.824 238.81 251.727C238.865 251.63 238.939 251.545 239.028 251.479Z" fill="#004E77"/>
<path d="M219 262.133C219.092 262.074 219.195 262.034 219.303 262.015C219.411 261.997 219.522 262 219.629 262.024C219.736 262.049 219.837 262.094 219.926 262.159C220.015 262.223 220.09 262.304 220.147 262.397L221.215 264.104L229.132 259.148C229.223 259.088 229.326 259.047 229.434 259.028C229.542 259.009 229.653 259.012 229.76 259.037C229.867 259.061 229.968 259.106 230.058 259.171C230.147 259.235 230.221 259.317 230.278 259.411L236.026 268.587C236.088 268.68 236.13 268.784 236.15 268.893C236.169 269.003 236.166 269.115 236.14 269.223C236.081 269.436 235.945 269.618 235.758 269.735C235.571 269.852 235.347 269.895 235.13 269.855C235.023 269.829 234.922 269.782 234.833 269.715C234.745 269.649 234.671 269.566 234.616 269.47L229.209 260.836L223.407 264.469L228.815 273.102C228.877 273.195 228.919 273.299 228.939 273.408C228.959 273.517 228.955 273.63 228.929 273.738C228.871 273.95 228.734 274.133 228.548 274.25C228.361 274.367 228.137 274.41 227.92 274.37C227.812 274.344 227.711 274.296 227.622 274.23C227.534 274.164 227.459 274.08 227.404 273.984L221.998 265.351L221.292 265.792C221.201 265.855 221.098 265.899 220.99 265.92C220.881 265.941 220.769 265.939 220.661 265.914C220.553 265.89 220.452 265.842 220.363 265.776C220.274 265.709 220.201 265.625 220.147 265.529L218.738 263.279C218.678 263.189 218.636 263.088 218.615 262.982C218.594 262.876 218.595 262.767 218.617 262.661C218.64 262.551 218.685 262.447 218.751 262.356C218.817 262.265 218.902 262.189 219 262.133Z" fill="#004E77"/>
<path d="M216.378 266.693C216.583 266.595 216.818 266.583 217.032 266.658C217.138 266.692 217.235 266.748 217.318 266.823C217.401 266.897 217.466 266.988 217.511 267.09L222.001 276.941C222.051 277.042 222.079 277.152 222.081 277.265C222.084 277.378 222.063 277.489 222.018 277.593C221.93 277.8 221.767 277.966 221.56 278.056C221.464 278.106 221.358 278.134 221.25 278.14C221.142 278.145 221.033 278.127 220.933 278.087C220.728 277.998 220.566 277.831 220.483 277.624L216.719 269.382L213.713 281.294C213.683 281.413 213.625 281.524 213.545 281.617C213.464 281.711 213.364 281.785 213.25 281.833C213.152 281.883 213.044 281.913 212.933 281.92C212.823 281.926 212.712 281.91 212.608 281.871C212.505 281.832 212.41 281.772 212.331 281.695C212.252 281.617 212.19 281.524 212.149 281.421L207.658 271.569C207.61 271.471 207.583 271.364 207.577 271.256C207.571 271.147 207.587 271.038 207.624 270.936C207.661 270.831 207.72 270.735 207.796 270.654C207.873 270.573 207.966 270.51 208.069 270.467C208.168 270.421 208.276 270.395 208.385 270.39C208.495 270.386 208.604 270.404 208.707 270.442C208.809 270.48 208.903 270.539 208.983 270.614C209.063 270.689 209.127 270.779 209.172 270.879L212.926 279.116L215.9 267.216C215.937 267.101 215.996 266.996 216.076 266.906C216.16 266.813 216.263 266.74 216.378 266.693Z" fill="#004E77"/>
<path d="M196.345 274.469C196.449 274.434 196.559 274.421 196.668 274.43C196.777 274.438 196.883 274.469 196.98 274.519C197.078 274.569 197.164 274.638 197.234 274.721C197.305 274.805 197.358 274.902 197.39 275.007L198.59 278.8L201.47 277.888L201.518 278.04C202.212 277.805 202.951 277.735 203.676 277.835C204.324 277.927 204.934 278.196 205.439 278.611C205.945 279.03 206.315 279.59 206.503 280.219C206.731 280.895 206.771 281.621 206.619 282.318C206.464 282.982 206.133 283.592 205.658 284.082C205.14 284.608 204.495 284.992 203.786 285.198L200.112 286.363C200.008 286.401 199.897 286.418 199.787 286.411C199.676 286.405 199.568 286.375 199.469 286.324C199.371 286.274 199.284 286.203 199.214 286.117C199.145 286.03 199.094 285.931 199.065 285.824L195.796 275.502C195.761 275.399 195.747 275.29 195.754 275.182C195.761 275.073 195.79 274.967 195.838 274.87C195.89 274.771 195.962 274.684 196.049 274.615C196.136 274.546 196.237 274.496 196.345 274.469ZM203.129 272.321C203.266 272.265 203.416 272.252 203.56 272.283C203.704 272.313 203.836 272.386 203.938 272.492C204.045 272.604 204.119 272.743 204.151 272.894C204.184 273.044 204.175 273.201 204.125 273.347L202.899 278.163L201.22 278.209L202.563 272.919C202.593 272.775 202.662 272.641 202.762 272.532C202.865 272.434 202.99 272.362 203.128 272.324L203.129 272.321ZM201.916 279.298L199.036 280.211L200.451 284.666L203.331 283.754C203.757 283.626 204.149 283.404 204.478 283.105C204.778 282.827 204.987 282.465 205.079 282.067C205.17 281.617 205.137 281.151 204.983 280.719C204.866 280.299 204.632 279.921 204.307 279.63C204 279.373 203.626 279.212 203.229 279.166C202.786 279.113 202.338 279.159 201.915 279.3L201.916 279.298Z" fill="#004E77"/>
<path d="M186.513 276.836C186.65 276.811 186.791 276.824 186.92 276.873C187.05 276.922 187.164 277.006 187.25 277.115C187.345 277.222 187.41 277.352 187.44 277.493C187.469 277.633 187.461 277.778 187.417 277.915L184.543 289.186C184.514 289.357 184.43 289.514 184.305 289.634C184.18 289.754 184.02 289.831 183.848 289.854C183.677 289.887 183.499 289.862 183.344 289.782C183.189 289.702 183.065 289.572 182.992 289.413L176.956 279.427C176.879 279.309 176.832 279.173 176.821 279.031C176.81 278.89 176.835 278.749 176.894 278.62C176.949 278.494 177.037 278.385 177.149 278.304C177.26 278.223 177.392 278.174 177.529 278.16C177.689 278.138 177.853 278.161 178 278.229C178.153 278.295 178.28 278.41 178.363 278.554L183.729 287.719L183.285 287.786L185.825 277.449C185.865 277.281 185.96 277.13 186.094 277.02C186.214 276.921 186.359 276.857 186.513 276.836ZM186.078 279.68L185.649 281.128L179.447 282.046L178.615 280.78L186.078 279.68Z" fill="#004E77"/>
<path d="M164.862 279.015C164.94 278.934 165.034 278.87 165.138 278.828C165.242 278.786 165.354 278.766 165.467 278.77C165.581 278.763 165.695 278.781 165.802 278.823C165.909 278.865 166.005 278.929 166.084 279.012L171.552 284.924L166.878 290.952C166.812 291.042 166.726 291.116 166.626 291.168C166.527 291.22 166.418 291.25 166.306 291.254C166.196 291.264 166.085 291.249 165.983 291.209C165.88 291.17 165.787 291.107 165.712 291.027C165.569 290.888 165.485 290.699 165.477 290.5C165.481 290.299 165.556 290.106 165.689 289.956L169.559 285.108L164.907 280.095C164.763 279.953 164.669 279.768 164.639 279.568C164.634 279.465 164.651 279.362 164.69 279.267C164.728 279.171 164.787 279.086 164.862 279.015ZM173.198 278.5C173.307 278.493 173.417 278.509 173.52 278.546C173.624 278.584 173.718 278.643 173.797 278.718C173.877 278.792 173.942 278.882 173.986 278.982C174.03 279.081 174.054 279.189 174.055 279.298L174.455 290.117C174.463 290.228 174.448 290.339 174.411 290.444C174.374 290.548 174.315 290.644 174.239 290.725C174.163 290.804 174.073 290.868 173.972 290.911C173.872 290.955 173.764 290.979 173.655 290.98C173.544 290.989 173.433 290.975 173.329 290.939C173.224 290.903 173.128 290.845 173.047 290.77C172.966 290.694 172.902 290.603 172.858 290.501C172.814 290.4 172.792 290.29 172.793 290.179L172.623 285.593L170.002 285.69L169.947 284.22L172.569 284.123L172.393 279.362C172.386 279.253 172.401 279.143 172.437 279.04C172.473 278.937 172.529 278.842 172.602 278.761C172.677 278.677 172.769 278.61 172.872 278.565C172.975 278.52 173.086 278.497 173.199 278.497L173.198 278.5Z" fill="#004E77"/>
<path d="M150.791 274.976C150.9 274.984 151.007 275.014 151.104 275.064C151.202 275.114 151.288 275.183 151.358 275.267C151.429 275.351 151.482 275.448 151.515 275.552C151.547 275.657 151.559 275.767 151.548 275.875L151.377 277.884L160.683 278.683C160.792 278.691 160.898 278.721 160.996 278.771C161.093 278.821 161.179 278.89 161.25 278.974C161.32 279.058 161.373 279.155 161.406 279.259C161.439 279.364 161.45 279.473 161.44 279.582L160.521 290.372C160.515 290.483 160.485 290.591 160.435 290.69C160.384 290.789 160.312 290.877 160.226 290.946C160.051 291.081 159.832 291.146 159.612 291.127C159.392 291.108 159.187 291.007 159.037 290.845C158.967 290.759 158.915 290.661 158.884 290.555C158.853 290.448 158.845 290.337 158.858 290.228L159.729 280.078L152.909 279.493L152.039 289.641C152.032 289.752 152.003 289.861 151.952 289.96C151.901 290.058 151.83 290.146 151.743 290.216C151.659 290.284 151.562 290.336 151.457 290.367C151.353 290.397 151.243 290.407 151.135 290.396C151.025 290.391 150.916 290.363 150.817 290.315C150.717 290.267 150.629 290.199 150.557 290.115C150.487 290.029 150.434 289.93 150.403 289.824C150.372 289.718 150.363 289.607 150.376 289.497L151.248 279.348L150.419 279.277C150.308 279.272 150.2 279.245 150.1 279.196C150.001 279.148 149.913 279.079 149.841 278.994C149.77 278.909 149.717 278.811 149.686 278.705C149.655 278.598 149.647 278.487 149.662 278.377L149.889 275.731C149.904 275.515 150.004 275.313 150.167 275.17C150.251 275.095 150.35 275.039 150.458 275.006C150.566 274.972 150.679 274.962 150.791 274.976Z" fill="#004E77"/>
<path d="M145.958 277.038C146.179 277.084 146.374 277.215 146.499 277.403C146.563 277.494 146.607 277.597 146.628 277.707C146.649 277.816 146.646 277.928 146.62 278.036L144.271 288.605C144.25 288.715 144.205 288.82 144.14 288.912C144.075 289.003 143.99 289.079 143.892 289.135C143.697 289.247 143.467 289.281 143.248 289.23C143.141 289.211 143.04 289.17 142.95 289.109C142.861 289.047 142.786 288.968 142.729 288.875C142.675 288.781 142.639 288.676 142.625 288.568C142.611 288.459 142.619 288.349 142.648 288.244L144.61 279.39L135.035 287.089C134.94 287.167 134.828 287.222 134.709 287.249C134.589 287.277 134.465 287.276 134.345 287.248C134.236 287.229 134.132 287.188 134.04 287.126C133.948 287.065 133.869 286.985 133.81 286.891C133.75 286.798 133.711 286.693 133.695 286.583C133.678 286.474 133.685 286.362 133.714 286.255L136.063 275.687C136.084 275.58 136.127 275.478 136.188 275.388C136.248 275.297 136.327 275.22 136.418 275.16C136.558 275.069 136.721 275.023 136.887 275.026C137.054 275.029 137.215 275.081 137.352 275.177C137.488 275.272 137.593 275.406 137.652 275.561C137.712 275.717 137.724 275.886 137.687 276.048L135.721 284.884L145.267 277.177C145.364 277.107 145.476 277.059 145.593 277.037C145.713 277.01 145.838 277.011 145.958 277.038Z" fill="#004E77"/>
<path d="M125.284 271.167C125.387 271.203 125.483 271.259 125.564 271.332C125.646 271.405 125.713 271.493 125.76 271.592C125.807 271.691 125.834 271.798 125.839 271.908C125.844 272.017 125.828 272.126 125.79 272.229L124.457 275.982L127.307 276.993L127.25 277.149C127.946 277.379 128.578 277.768 129.097 278.285C129.557 278.749 129.882 279.33 130.035 279.966C130.185 280.606 130.142 281.276 129.912 281.892C129.686 282.57 129.279 283.174 128.734 283.637C128.21 284.073 127.578 284.359 126.904 284.464C126.174 284.571 125.429 284.491 124.738 284.229L121.107 282.94C121.001 282.909 120.902 282.855 120.818 282.783C120.734 282.711 120.666 282.622 120.618 282.522C120.57 282.422 120.544 282.313 120.541 282.202C120.538 282.091 120.558 281.981 120.6 281.878L124.22 271.677C124.254 271.573 124.309 271.477 124.38 271.395C124.452 271.312 124.539 271.245 124.637 271.196C124.736 271.146 124.846 271.118 124.957 271.113C125.068 271.108 125.18 271.127 125.284 271.167ZM126.816 278.381L123.968 277.369L122.407 281.77L125.255 282.78C125.671 282.936 126.117 282.996 126.559 282.955C126.965 282.917 127.35 282.758 127.664 282.498C128.01 282.193 128.266 281.801 128.406 281.362C128.566 280.956 128.605 280.514 128.519 280.087C128.429 279.695 128.226 279.339 127.934 279.062C127.616 278.756 127.235 278.523 126.816 278.381ZM131.992 273.549C132.135 273.587 132.262 273.667 132.359 273.778C132.455 273.889 132.516 274.027 132.534 274.173C132.551 274.327 132.527 274.482 132.462 274.622C132.397 274.763 132.295 274.882 132.167 274.969L128.276 278.067L126.922 277.095L131.187 273.687C131.3 273.592 131.436 273.529 131.581 273.505C131.719 273.487 131.86 273.502 131.991 273.549L131.992 273.549Z" fill="#004E77"/>
</g>
<defs>
<clipPath id="clip0_1445_1675">
<rect width="246.189" height="248.207" fill="white" transform="translate(114.523 0.392578) rotate(27.2392)"/>
</clipPath>
</defs>
</svg>
