<svg width="66" height="66" viewBox="0 0 66 66" fill="none" xmlns="http://www.w3.org/2000/svg">
<rect width="66" height="66" rx="33" fill="#CFEAFB"/>
<path d="M10.9941 31C10.1657 31 9.49414 31.6716 9.49414 32.5C9.49414 33.3284 10.1657 34 10.9941 34V31ZM55.0664 33.5607C55.6522 32.9749 55.6522 32.0251 55.0664 31.4393L45.5205 21.8934C44.9347 21.3076 43.985 21.3076 43.3992 21.8934C42.8134 22.4792 42.8134 23.4289 43.3992 24.0147L51.8844 32.5L43.3992 40.9853C42.8134 41.5711 42.8134 42.5208 43.3992 43.1066C43.985 43.6924 44.9347 43.6924 45.5205 43.1066L55.0664 33.5607ZM10.9941 34H54.0058V31H10.9941V34Z" fill="#004E77"/>
</svg>
