<svg xmlns="http://www.w3.org/2000/svg" width="25" height="29" viewBox="0 0 25 29" fill="none">
    <path fill-rule="evenodd" clip-rule="evenodd" d="M12.5003 16.323C13.5167 16.323 14.4914 15.9193 15.2102 15.2009C15.9291 14.4824 16.3332 13.5079 16.3337 12.4915C16.3337 11.4749 15.9298 10.4999 15.2109 9.78096C14.492 9.06207 13.517 8.6582 12.5003 8.6582C11.4837 8.6582 10.5086 9.06207 9.78975 9.78096C9.07086 10.4999 8.66699 11.4749 8.66699 12.4915C8.6675 13.5079 9.07159 14.4824 9.79043 15.2009C10.5093 15.9193 11.484 16.323 12.5003 16.323Z" stroke="white" stroke-width="2" stroke-linecap="square"/>
    <path fill-rule="evenodd" clip-rule="evenodd" d="M24 12.4923C24 22.0699 14.4167 27.8161 12.5 27.8161C10.5833 27.8161 1 22.0699 1 12.4923C1.00152 9.44352 2.21386 6.52012 4.37042 4.365C6.52698 2.20988 9.45118 0.999492 12.5 1C18.8499 1 24 6.14625 24 12.4923Z" stroke="white" stroke-width="2" stroke-linecap="square"/>
  </svg>