<svg width="27" height="27" viewBox="0 0 27 27" fill="none" xmlns="http://www.w3.org/2000/svg">
<g clip-path="url(#clip0_1223_995)">
<path d="M17.0269 7.37406C16.9074 7.30477 16.7753 7.25983 16.6384 7.24184C16.5014 7.22385 16.3622 7.23317 16.2289 7.26925C16.0955 7.30534 15.9706 7.36747 15.8614 7.45208C15.7522 7.53668 15.6608 7.64208 15.5925 7.76219L9.56816 18.1909C9.49887 18.3105 9.45393 18.4425 9.43594 18.5795C9.41795 18.7165 9.42727 18.8556 9.46335 18.989C9.49943 19.1224 9.56157 19.2472 9.64618 19.3565C9.73078 19.4657 9.83618 19.557 9.95629 19.6253C10.1134 19.7212 10.2955 19.7682 10.4794 19.7603C10.6636 19.7595 10.8444 19.7109 11.0042 19.6192C11.1639 19.5275 11.2971 19.3959 11.3907 19.2372L17.415 8.80844C17.4867 8.68953 17.5335 8.55736 17.5527 8.41988C17.5719 8.28241 17.5631 8.14247 17.5269 8.00847C17.4906 7.87448 17.4277 7.7492 17.3417 7.64018C17.2558 7.53115 17.1487 7.44063 17.0269 7.37406ZM12.4032 10.8503C12.4398 9.88903 12.0949 8.95225 11.4438 8.24417C10.7926 7.5361 9.88789 7.11415 8.92691 7.07031C7.96449 7.11418 7.05812 7.53555 6.40425 8.24312C5.75039 8.95068 5.40171 9.88742 5.43379 10.8503C5.39716 11.8161 5.7438 12.7571 6.39814 13.4684C7.05248 14.1796 7.96146 14.6033 8.92691 14.6472C9.89093 14.6034 10.7982 14.1791 11.4499 13.4673C12.1016 12.7556 12.4444 11.8144 12.4032 10.8503ZM8.92691 12.5378C8.5224 12.491 8.15192 12.2888 7.89372 11.9739C7.63552 11.6591 7.50981 11.2562 7.54316 10.8503C7.5054 10.4436 7.62949 10.0383 7.88852 9.72242C8.14754 9.40653 8.52064 9.20547 8.92691 9.16281C9.33194 9.20534 9.70349 9.40702 9.95983 9.72349C10.2162 10.04 10.3363 10.4453 10.2938 10.8503C10.3318 11.2544 10.21 11.6574 9.95449 11.9728C9.699 12.2882 9.33013 12.4911 8.92691 12.5378ZM18.0732 12.3522C17.1122 12.396 16.2075 12.818 15.5563 13.526C14.9051 14.2341 14.5603 15.1709 14.5969 16.1322C14.5557 17.0963 14.8985 18.0375 15.5502 18.7492C16.2018 19.461 17.1091 19.8853 18.0732 19.9291C19.0386 19.8852 19.9476 19.4615 20.6019 18.7503C21.2563 18.039 21.6029 17.0979 21.5663 16.1322C21.5984 15.1693 21.2497 14.2326 20.5958 13.525C19.942 12.8174 19.0356 12.3961 18.0732 12.3522ZM18.0732 17.8197C17.6699 17.7729 17.3011 17.5701 17.0456 17.2547C16.7901 16.9393 16.6683 16.5363 16.7063 16.1322C16.6683 15.7281 16.7901 15.3251 17.0456 15.0097C17.3011 14.6943 17.6699 14.4914 18.0732 14.4447C18.4794 14.4873 18.8525 14.6884 19.1116 15.0043C19.3706 15.3202 19.4947 15.7254 19.4569 16.1322C19.4903 16.538 19.3646 16.9409 19.1064 17.2558C18.8482 17.5707 18.4777 17.7729 18.0732 17.8197Z" fill="#22D405"/>
<path d="M13.5 0.842432C10.0322 0.733236 6.6628 2.00471 4.13165 4.37766C1.60051 6.7506 0.114528 10.0311 0 13.4987C0.114528 16.9663 1.60051 20.2468 4.13165 22.6197C6.6628 24.9927 10.0322 26.2641 13.5 26.1549C16.9678 26.2641 20.3372 24.9927 22.8683 22.6197C25.3995 20.2468 26.8855 16.9663 27 13.4987C26.8855 10.0311 25.3995 6.7506 22.8683 4.37766C20.3372 2.00471 16.9678 0.733236 13.5 0.842432ZM13.5 24.0456C10.5927 24.1506 7.76218 23.0999 5.62754 21.1234C3.49291 19.1469 2.22795 16.4054 2.10938 13.4987C2.22795 10.5919 3.49291 7.85044 5.62754 5.87393C7.76218 3.89742 10.5927 2.84677 13.5 2.95181C16.4073 2.84677 19.2378 3.89742 21.3725 5.87393C23.5071 7.85044 24.7721 10.5919 24.8906 13.4987C24.7721 16.4054 23.5071 19.1469 21.3725 21.1234C19.2378 23.0999 16.4073 24.1506 13.5 24.0456Z" fill="#22D405"/>
</g>
<defs>
<clipPath id="clip0_1223_995">
<rect width="27" height="27" fill="white"/>
</clipPath>
</defs>
</svg>
