<svg width="61" height="76" viewBox="0 0 61 76" fill="none" xmlns="http://www.w3.org/2000/svg">
<path d="M18.581 7.06158L18.581 7.06157C19.8889 6.66911 21.3001 6.7809 22.5266 7.37386C23.753 7.96675 24.7016 8.99558 25.1806 10.2495L25.1806 10.2495L27.6548 16.7249L27.6548 16.725C28.035 17.7194 28.1037 18.8024 27.8522 19.8352C27.6007 20.8681 27.0403 21.8043 26.2422 22.5234L18.8824 29.1382L18.8822 29.1383C18.4874 29.4939 18.1927 29.9443 18.0275 30.4458C17.8622 30.9474 17.8321 31.4825 17.9403 31.999L17.9402 31.999L17.9416 32.005L18.0099 32.2952L18.0103 32.297L18.1866 33.0227L18.1866 33.0227L18.1876 33.0265C19.1086 36.5746 20.512 39.9848 22.3598 43.1652L22.3612 43.1676C24.374 46.5472 26.8718 49.6247 29.7778 52.3057L29.7777 52.3057L29.7818 52.3093L30.0093 52.5103L30.0106 52.5114C30.4105 52.8598 30.8951 53.1002 31.417 53.2096C31.939 53.3191 32.4809 53.294 32.9901 53.1367L32.9902 53.1367L42.5056 50.1949C43.5402 49.8761 44.6485 49.868 45.6879 50.1715C46.7273 50.4751 47.6498 51.0763 48.3376 51.8973L48.3378 51.8975L52.8425 57.262L52.8426 57.2621C54.6326 59.3916 54.4166 62.5217 52.3591 64.4025L52.3589 64.4026C46.5254 69.7414 38.5526 70.7983 33.0317 66.4453C26.1395 60.989 20.3295 54.3345 15.892 46.8146L15.8915 46.8137C11.4184 39.3004 8.43632 31.026 7.09062 22.4252C6.02905 15.5624 10.9547 9.34844 18.581 7.06158ZM30.9772 8.11187L30.9771 8.1117C29.9436 5.40672 27.8986 3.19162 25.2602 1.91654C22.622 0.641514 19.5882 0.401848 16.7765 1.24606L16.7765 1.24606C7.12628 4.14424 -0.680437 12.6601 0.971311 23.3446L0.971321 23.3447C2.11284 30.7165 4.74388 40.0926 10.5473 49.8824C15.3675 58.0462 21.6772 65.2694 29.1608 71.1915L29.1612 71.1918C37.7477 77.9596 49.1814 75.6303 56.5811 68.8634C58.7275 66.9019 60.0313 64.2096 60.2249 61.3354C60.4185 58.4612 59.4871 55.6235 57.6221 53.4015C57.6221 53.4015 57.6221 53.4014 57.6221 53.4014L53.1174 48.0314L53.1174 48.0313C51.6442 46.2764 49.671 44.994 47.4513 44.3477C45.2317 43.7015 42.866 43.7207 40.6575 44.4029L32.9025 46.7974C30.9212 44.7759 29.183 42.5377 27.7223 40.1267C26.3123 37.69 25.208 35.0952 24.4333 32.3987L30.416 27.0091C30.416 27.009 30.416 27.009 30.4161 27.009C32.1243 25.4715 33.3259 23.4675 33.866 21.2538C34.406 19.0401 34.2596 16.7184 33.4456 14.5871L30.9772 8.11187Z" fill="#0091E9" stroke="#0091E9" stroke-width="0.5"/>
</svg>
