<svg width="75" height="83" viewBox="0 0 75 83" fill="none" xmlns="http://www.w3.org/2000/svg">
<path d="M8.05233 74.0508C13.1047 79.6667 21.239 79.6667 37.5 79.6667C53.7648 79.6667 61.8953 79.6667 66.9477 74.0508C72 68.4427 72 59.4037 72 41.3333C72 23.263 72 14.2278 66.9477 8.612C61.8953 3 53.761 3 37.5 3C21.2352 3 13.1047 3 8.05233 8.612C3 14.2317 3 23.263 3 41.3333C3 59.4037 3 68.4388 8.05233 74.0508Z" stroke="#0091E9" stroke-width="5"/>
<path d="M18.333 25.9987C18.333 24.2162 18.333 23.3269 18.5285 22.5947C18.7899 21.6205 19.303 20.7323 20.0162 20.019C20.7294 19.3058 21.6177 18.7928 22.5918 18.5314C23.3317 18.332 24.221 18.332 25.9997 18.332H48.9997C50.7822 18.332 51.6715 18.332 52.4037 18.5275C53.3778 18.7889 54.2661 19.302 54.9793 20.0152C55.6925 20.7284 56.2056 21.6167 56.467 22.5909C56.6663 23.3307 56.6663 24.22 56.6663 25.9987C56.6663 27.7774 56.6663 28.6705 56.4708 29.4027C56.2094 30.3769 55.6964 31.2651 54.9832 31.9784C54.27 32.6916 53.3817 33.2046 52.4075 33.466C51.6715 33.6654 50.7783 33.6654 48.9997 33.6654H25.9997C24.2172 33.6654 23.3278 33.6654 22.5957 33.4699C21.6215 33.2085 20.7332 32.6954 20.02 31.9822C19.3068 31.269 18.7937 30.3807 18.5323 29.4065C18.333 28.6667 18.333 27.7774 18.333 25.9987Z" stroke="#0091E9" stroke-width="5"/>
<path d="M22.1663 48.9987C24.2834 48.9987 25.9997 47.2825 25.9997 45.1654C25.9997 43.0483 24.2834 41.332 22.1663 41.332C20.0492 41.332 18.333 43.0483 18.333 45.1654C18.333 47.2825 20.0492 48.9987 22.1663 48.9987Z" fill="#0091E9"/>
<path d="M22.1663 64.3346C24.2834 64.3346 25.9997 62.6184 25.9997 60.5013C25.9997 58.3842 24.2834 56.668 22.1663 56.668C20.0492 56.668 18.333 58.3842 18.333 60.5013C18.333 62.6184 20.0492 64.3346 22.1663 64.3346Z" fill="#0091E9"/>
<path d="M37.5003 48.9987C39.6174 48.9987 41.3337 47.2825 41.3337 45.1654C41.3337 43.0483 39.6174 41.332 37.5003 41.332C35.3832 41.332 33.667 43.0483 33.667 45.1654C33.667 47.2825 35.3832 48.9987 37.5003 48.9987Z" fill="#0091E9"/>
<path d="M37.5003 64.3346C39.6174 64.3346 41.3337 62.6184 41.3337 60.5013C41.3337 58.3842 39.6174 56.668 37.5003 56.668C35.3832 56.668 33.667 58.3842 33.667 60.5013C33.667 62.6184 35.3832 64.3346 37.5003 64.3346Z" fill="#0091E9"/>
<path d="M52.8333 48.9987C54.9504 48.9987 56.6667 47.2825 56.6667 45.1654C56.6667 43.0483 54.9504 41.332 52.8333 41.332C50.7162 41.332 49 43.0483 49 45.1654C49 47.2825 50.7162 48.9987 52.8333 48.9987Z" fill="#0091E9"/>
<path d="M52.8333 64.3346C54.9504 64.3346 56.6667 62.6184 56.6667 60.5013C56.6667 58.3842 54.9504 56.668 52.8333 56.668C50.7162 56.668 49 58.3842 49 60.5013C49 62.6184 50.7162 64.3346 52.8333 64.3346Z" fill="#0091E9"/>
</svg>
