<svg width="76" height="76" viewBox="0 0 76 76" fill="none" xmlns="http://www.w3.org/2000/svg">
<path d="M74.8352 68.3714L57.6064 51.1426C61.7543 45.6206 63.9935 38.8993 63.9859 31.993C63.9859 14.3522 49.6338 0 31.993 0C14.3522 0 0 14.3522 0 31.993C0 49.6338 14.3522 63.9859 31.993 63.9859C38.8993 63.9935 45.6206 61.7543 51.1426 57.6064L68.3714 74.8352C69.2435 75.6148 70.381 76.0309 71.5503 75.9982C72.7196 75.9655 73.832 75.4864 74.6592 74.6592C75.4864 73.832 75.9655 72.7196 75.9982 71.5503C76.0309 70.381 75.6148 69.2435 74.8352 68.3714ZM9.14085 31.993C9.14085 27.4732 10.4811 23.055 12.9921 19.297C15.5031 15.539 19.0722 12.61 23.2478 10.8804C27.4235 9.15074 32.0183 8.69819 36.4512 9.57994C40.8841 10.4617 44.9559 12.6381 48.1518 15.8341C51.3478 19.03 53.5242 23.1019 54.406 27.5347C55.2877 31.9676 54.8352 36.5624 53.1056 40.7381C51.3759 44.9138 48.4469 48.4828 44.6889 50.9938C40.9309 53.5048 36.5127 54.8451 31.993 54.8451C25.9344 54.8378 20.1261 52.4278 15.8421 48.1438C11.5581 43.8598 9.14811 38.0515 9.14085 31.993Z" fill="#0091E9"/>
</svg>
