<svg width="87" height="58" viewBox="0 0 87 58" fill="none" xmlns="http://www.w3.org/2000/svg">
<path d="M4.83333 58H82.1667C84.825 58 87 55.825 87 53.1667C87 50.5083 84.825 48.3333 82.1667 48.3333H4.83333C2.175 48.3333 0 50.5083 0 53.1667C0 55.825 2.175 58 4.83333 58ZM4.83333 33.8333H82.1667C84.825 33.8333 87 31.6583 87 29C87 26.3417 84.825 24.1667 82.1667 24.1667H4.83333C2.175 24.1667 0 26.3417 0 29C0 31.6583 2.175 33.8333 4.83333 33.8333ZM0 4.83333C0 7.49167 2.175 9.66667 4.83333 9.66667H82.1667C84.825 9.66667 87 7.49167 87 4.83333C87 2.175 84.825 0 82.1667 0H4.83333C2.175 0 0 2.175 0 4.83333Z" fill="#0091E9"/>
</svg>
