<svg width="71" height="120" viewBox="0 0 71 120" fill="none" xmlns="http://www.w3.org/2000/svg">
<path d="M35.8 94.2C34.5 94.2 33.4 93.75 32.5 92.85C31.7 91.95 31.3 90.85 31.3 89.55C31.3 85.45 32.25 81.1 34.15 76.5C36.05 71.9 38.5 68.05 41.5 64.95C44.8 61.65 48 58.6 51.1 55.8C54.2 52.9 56.75 49.7 58.75 46.2C60.75 42.6 61.75 38.15 61.75 32.85C61.75 28.35 60.65 24.35 58.45 20.85C56.25 17.35 53.2 14.6 49.3 12.6C45.4 10.5 40.9 9.44999 35.8 9.44999C30.8 9.44999 26.35 10.55 22.45 12.75C18.55 14.95 15.5 18 13.3 21.9C11.1 25.7 10 30.15 10 35.25C10 36.55 9.6 37.6 8.8 38.4C8 39.2 6.9 39.6 5.5 39.6C4.2 39.6 3.1 39.2 2.2 38.4C1.3 37.6 0.85 36.55 0.85 35.25C0.85 28.45 2.35 22.45 5.35 17.25C8.35 11.95 12.45 7.85 17.65 4.95C22.95 1.94999 29 0.449992 35.8 0.449992C42.6 0.449992 48.6 1.89999 53.8 4.8C59.1 7.7 63.25 11.7 66.25 16.8C69.25 21.8 70.75 27.45 70.75 33.75C70.75 39.35 69.7 44.05 67.6 47.85C65.6 51.65 62.9 55.15 59.5 58.35C56.1 61.55 52.45 65.1 48.55 69C45.25 72.3 43.05 75.75 41.95 79.35C40.95 82.95 40.45 86.35 40.45 89.55C40.45 90.85 40 91.95 39.1 92.85C38.3 93.75 37.2 94.2 35.8 94.2ZM35.8 120C33.6 120 31.8 119.25 30.4 117.75C29 116.25 28.3 114.45 28.3 112.35C28.3 110.25 29 108.5 30.4 107.1C31.8 105.6 33.6 104.85 35.8 104.85C37.9 104.85 39.7 105.55 41.2 106.95C42.7 108.35 43.45 110.15 43.45 112.35C43.45 114.55 42.7 116.4 41.2 117.9C39.7 119.3 37.9 120 35.8 120Z" fill="#0091E9" fill-opacity="0.5"/>
</svg>
