<svg width="519" height="519" viewBox="0 0 519 519" fill="none" xmlns="http://www.w3.org/2000/svg">
<g clip-path="url(#clip0_835_437)">
<path d="M325.495 408.486C327.164 407.761 328.957 407.366 330.776 407.324C332.453 407.291 334.119 407.61 335.665 408.26C337.21 408.912 338.606 409.872 339.769 411.08C341.03 412.396 342.029 413.94 342.714 415.628C343.437 417.293 343.835 419.081 343.887 420.896C343.929 422.561 343.636 424.218 343.025 425.768C342.398 427.326 341.452 428.737 340.248 429.91C338.947 431.18 337.413 432.187 335.73 432.875C334.066 433.597 332.277 433.988 330.463 434.025C328.788 434.056 327.125 433.742 325.577 433.102C324.03 432.462 322.631 431.509 321.468 430.304C320.21 428.995 319.213 427.458 318.529 425.775C317.805 424.098 317.405 422.298 317.353 420.472C317.302 418.795 317.598 417.125 318.224 415.568C318.85 414.011 319.792 412.601 320.99 411.425C322.287 410.163 323.817 409.164 325.495 408.486ZM326.696 411.348C325.44 411.857 324.303 412.621 323.356 413.591C322.463 414.507 321.765 415.594 321.306 416.787C320.846 417.98 320.634 419.254 320.681 420.531C320.73 421.894 321.032 423.236 321.572 424.488C322.086 425.751 322.832 426.907 323.772 427.896C324.652 428.827 325.712 429.568 326.888 430.076C328.057 430.579 329.317 430.836 330.59 430.833C333.32 430.785 335.926 429.689 337.871 427.772C338.763 426.871 339.457 425.793 339.908 424.608C340.362 423.41 340.576 422.134 340.537 420.853C340.499 419.488 340.202 418.143 339.661 416.89C339.145 415.626 338.393 414.472 337.447 413.488C336.565 412.563 335.512 411.818 334.345 411.296C333.18 410.788 331.923 410.523 330.651 410.519C329.29 410.519 327.943 410.801 326.696 411.348Z" fill="#004E77"/>
<path d="M315.251 436.685C315.454 436.626 315.666 436.609 315.875 436.637C316.084 436.665 316.285 436.736 316.465 436.845C316.645 436.955 316.8 437.101 316.921 437.274C317.041 437.447 317.124 437.643 317.165 437.85C317.222 438.053 317.236 438.266 317.207 438.475C317.177 438.685 317.104 438.885 316.992 439.065C316.88 439.244 316.732 439.398 316.558 439.517C316.383 439.636 316.185 439.717 315.977 439.756L298.808 443.93C298.603 443.987 298.388 444.002 298.177 443.975C297.966 443.947 297.763 443.877 297.58 443.77C297.396 443.662 297.236 443.518 297.11 443.347C296.983 443.177 296.892 442.982 296.842 442.775C296.792 442.568 296.784 442.354 296.819 442.144C296.854 441.934 296.931 441.733 297.045 441.553C297.159 441.374 297.308 441.219 297.483 441.098C297.658 440.977 297.855 440.892 298.064 440.849L315.251 436.685ZM301.312 416.781C301.533 416.724 301.763 416.711 301.989 416.745C302.214 416.778 302.431 416.857 302.625 416.976C302.82 417.095 302.988 417.252 303.12 417.437C303.253 417.623 303.346 417.833 303.395 418.056L309.052 441.435L305.717 442.244L300.056 418.854C299.999 418.633 299.987 418.403 300.02 418.178C300.054 417.952 300.133 417.736 300.252 417.541C300.371 417.347 300.528 417.178 300.714 417.046C300.9 416.913 301.11 416.82 301.333 416.77L301.312 416.781Z" fill="#004E77"/>
<path d="M278.298 420.306C279.53 420.194 280.77 420.234 281.992 420.425C283.169 420.593 284.314 420.938 285.387 421.449C286.287 421.85 287.054 422.497 287.601 423.316C287.668 423.742 287.716 424.144 287.766 424.559C287.796 424.749 287.772 424.943 287.698 425.12C287.624 425.297 287.502 425.45 287.345 425.561C287.194 425.691 287.016 425.788 286.824 425.844C286.631 425.899 286.43 425.913 286.232 425.885C285.815 425.808 285.438 425.59 285.162 425.269C284.391 424.542 283.462 424.004 282.447 423.698C281.223 423.296 279.927 423.158 278.646 423.294C277.585 423.371 276.554 423.683 275.627 424.205C274.815 424.668 274.145 425.344 273.688 426.159C273.243 426.968 273.056 427.895 273.152 428.813C273.186 429.421 273.354 430.014 273.645 430.549C273.936 431.084 274.342 431.547 274.834 431.905C275.912 432.652 277.232 432.966 278.531 432.785L280.691 432.57C280.881 432.547 281.075 432.564 281.257 432.622C281.44 432.679 281.609 432.775 281.751 432.903C282.04 433.166 282.217 433.53 282.244 433.92C282.299 434.327 282.195 434.74 281.952 435.072C281.837 435.225 281.689 435.351 281.519 435.441C281.35 435.532 281.163 435.584 280.972 435.595L279.296 435.751C278.207 435.823 277.191 436.321 276.467 437.138C276.108 437.557 275.841 438.048 275.685 438.577C275.529 439.107 275.488 439.664 275.563 440.211C275.685 441.523 276.232 442.451 277.206 442.994C278.329 443.559 279.598 443.77 280.845 443.599C281.878 443.511 282.883 443.215 283.798 442.727C284.711 442.228 285.493 441.518 286.078 440.657C286.329 440.214 286.696 439.847 287.14 439.595C287.335 439.502 287.552 439.46 287.768 439.475C287.984 439.49 288.193 439.561 288.374 439.68C288.712 439.879 288.966 440.193 289.091 440.565C289.164 440.75 289.195 440.949 289.18 441.147C289.166 441.345 289.107 441.538 289.008 441.71C288.255 443.008 287.222 444.121 285.983 444.969C284.624 445.817 283.097 446.36 281.508 446.559C279.92 446.759 278.306 446.612 276.781 446.126C275.585 445.717 274.514 445.006 273.673 444.064C272.887 443.169 272.411 442.045 272.315 440.858C272.218 439.941 272.358 439.014 272.721 438.165C273.059 437.374 273.543 436.654 274.149 436.042C274.705 435.475 275.35 435.001 276.059 434.64C276.618 434.336 277.229 434.137 277.86 434.054L277.958 435.11C277.232 435.155 276.503 435.106 275.79 434.964C274.888 434.797 274.016 434.497 273.203 434.073C272.318 433.613 271.553 432.953 270.967 432.147C270.311 431.203 269.927 430.096 269.857 428.948C269.715 427.548 270.008 426.139 270.695 424.91C271.412 423.632 272.45 422.563 273.707 421.81C275.098 420.954 276.671 420.439 278.298 420.306Z" fill="#004E77"/>
<path d="M260.877 421.676C261.103 421.692 261.324 421.752 261.526 421.853C261.728 421.955 261.908 422.096 262.055 422.268C262.201 422.44 262.312 422.64 262.38 422.856C262.449 423.072 262.473 423.299 262.452 423.524L260.653 445.968C260.644 446.18 260.586 446.387 260.486 446.574C260.386 446.761 260.245 446.923 260.073 447.049C259.71 447.311 259.263 447.429 258.818 447.38C258.368 447.363 257.942 447.177 257.624 446.859C257.48 446.71 257.371 446.53 257.305 446.334C257.238 446.138 257.214 445.93 257.236 445.724L257.907 437.363L252.368 436.895C250.848 436.804 249.373 436.347 248.069 435.562C246.873 434.849 245.907 433.808 245.285 432.562C244.664 431.316 244.413 429.918 244.562 428.533C244.654 427.061 245.139 425.641 245.968 424.42C246.773 423.265 247.884 422.356 249.176 421.796C250.581 421.193 252.116 420.955 253.637 421.106L260.877 421.676ZM258.895 424.713L253.368 424.273C252.449 424.182 251.521 424.301 250.656 424.622C249.872 424.924 249.196 425.452 248.714 426.139C248.184 426.931 247.882 427.853 247.838 428.805C247.722 429.739 247.876 430.688 248.282 431.537C248.66 432.259 249.247 432.849 249.967 433.229C250.783 433.648 251.676 433.893 252.591 433.949L258.122 434.386L258.895 424.713ZM239.632 420.005C239.857 420.02 240.078 420.08 240.28 420.182C240.482 420.283 240.662 420.424 240.809 420.597C240.955 420.769 241.066 420.969 241.134 421.184C241.203 421.4 241.227 421.627 241.206 421.853L239.421 444.133C239.411 444.362 239.353 444.587 239.251 444.793C239.149 444.999 239.005 445.181 238.829 445.329C238.655 445.472 238.454 445.579 238.238 445.645C238.023 445.71 237.796 445.732 237.572 445.709C237.349 445.697 237.131 445.64 236.932 445.542C236.732 445.443 236.554 445.305 236.41 445.135C236.264 444.96 236.155 444.756 236.09 444.538C236.026 444.319 236.006 444.089 236.032 443.863L237.814 421.585C237.827 421.36 237.885 421.139 237.983 420.937C238.082 420.734 238.22 420.553 238.389 420.403C238.558 420.25 238.757 420.135 238.974 420.064C239.191 419.993 239.42 419.969 239.647 419.993L239.632 420.005Z" fill="#004E77"/>
<path d="M228.457 417.759C228.677 417.813 228.883 417.911 229.064 418.046C229.246 418.182 229.398 418.352 229.512 418.547C229.626 418.743 229.7 418.959 229.729 419.184C229.758 419.408 229.742 419.636 229.681 419.854L223.984 441.472C223.935 441.697 223.839 441.909 223.703 442.095C223.566 442.281 223.393 442.436 223.193 442.551C222.996 442.663 222.778 442.735 222.553 442.762C222.328 442.789 222.1 442.772 221.882 442.71L214.249 440.703C212.921 440.385 211.689 439.751 210.657 438.856C209.737 438.046 209.057 436.999 208.69 435.829C208.325 434.626 208.313 433.343 208.658 432.134C208.912 431.125 209.467 430.217 210.248 429.53C211.057 428.824 212.037 428.346 213.091 428.142C211.848 427.51 210.846 426.491 210.235 425.238C209.648 424.017 209.567 422.597 209.992 420.979C210.314 419.616 211.016 418.372 212.018 417.393C213.02 416.414 214.279 415.74 215.649 415.449C217.14 415.126 218.686 415.175 220.153 415.591L228.457 417.759ZM222.916 431.994L216.949 430.425C215.894 430.099 214.759 430.137 213.728 430.532C212.792 430.926 212.163 431.724 211.835 432.928C211.506 434.132 211.665 435.142 212.284 435.924C212.993 436.769 213.962 437.354 215.04 437.587L221.007 439.156L222.916 431.994ZM225.988 420.364L219.351 418.648C218.467 418.395 217.539 418.337 216.63 418.479C215.828 418.608 215.081 418.968 214.48 419.515C213.837 420.138 213.389 420.935 213.191 421.808C212.949 422.604 212.963 423.456 213.232 424.243C213.515 424.97 213.997 425.603 214.623 426.069C215.362 426.607 216.199 426.995 217.087 427.211L223.744 428.94L225.988 420.364Z" fill="#004E77"/>
<path d="M204.21 410.675C204.417 410.768 204.603 410.901 204.757 411.066C204.911 411.232 205.031 411.427 205.108 411.64C205.185 411.852 205.219 412.078 205.208 412.305C205.196 412.531 205.14 412.752 205.041 412.956L195.521 433.37C195.437 433.565 195.311 433.738 195.151 433.878C194.992 434.018 194.803 434.12 194.599 434.177C194.164 434.279 193.709 434.231 193.305 434.042C192.901 433.853 192.573 433.533 192.373 433.135C192.29 432.943 192.249 432.735 192.255 432.526C192.26 432.316 192.311 432.111 192.405 431.923L195.952 424.319L190.924 421.978C189.531 421.363 188.307 420.419 187.359 419.228C186.488 418.14 185.946 416.826 185.799 415.44C185.651 414.054 185.904 412.654 186.527 411.407C187.126 410.06 188.077 408.899 189.279 408.046C190.438 407.243 191.797 406.777 193.204 406.702C194.734 406.629 196.257 406.946 197.629 407.624L204.21 410.675ZM201.313 412.824L196.285 410.483C195.457 410.077 194.546 409.865 193.623 409.864C192.783 409.871 191.965 410.13 191.274 410.609C190.501 411.164 189.896 411.922 189.526 412.799C189.09 413.635 188.902 414.577 188.984 415.515C189.088 416.323 189.432 417.081 189.973 417.69C190.59 418.37 191.343 418.913 192.183 419.283L197.211 421.624L201.313 412.824ZM184.907 401.686C185.115 401.778 185.301 401.911 185.456 402.077C185.61 402.243 185.729 402.439 185.805 402.652C185.885 402.865 185.919 403.092 185.907 403.318C185.895 403.545 185.836 403.766 185.735 403.97L176.29 424.231C176.2 424.443 176.067 424.633 175.899 424.791C175.731 424.948 175.532 425.069 175.315 425.145C175.102 425.217 174.877 425.245 174.652 425.228C174.428 425.212 174.21 425.15 174.01 425.047C173.804 424.96 173.619 424.831 173.465 424.669C173.312 424.507 173.194 424.314 173.119 424.104C173.043 423.889 173.012 423.661 173.028 423.433C173.043 423.206 173.105 422.984 173.209 422.781L182.658 402.517C182.748 402.311 182.878 402.125 183.041 401.97C183.204 401.815 183.396 401.694 183.607 401.614C183.817 401.535 184.041 401.501 184.265 401.513C184.489 401.526 184.708 401.585 184.907 401.686Z" fill="#004E77"/>
<path d="M158.099 382.325C159.495 383.491 160.651 384.917 161.503 386.523C162.284 388.003 162.749 389.628 162.867 391.297C162.975 392.971 162.742 394.649 162.182 396.231C161.575 397.951 160.645 399.539 159.443 400.911C158.28 402.307 156.859 403.467 155.258 404.327C153.785 405.121 152.167 405.607 150.501 405.757C148.832 405.9 147.152 405.692 145.569 405.146C142.128 403.909 139.261 401.455 137.508 398.248C136.73 396.766 136.265 395.14 136.143 393.471C136.021 391.801 136.244 390.124 136.799 388.545C137.403 386.831 138.33 385.249 139.53 383.885C140.699 382.486 142.124 381.322 143.727 380.454C145.203 379.654 146.828 379.169 148.5 379.029C150.172 378.889 151.855 379.096 153.443 379.639C155.155 380.224 156.736 381.137 158.099 382.325ZM156.079 384.684C155.062 383.793 153.871 383.122 152.582 382.713C151.364 382.327 150.08 382.193 148.808 382.318C147.536 382.444 146.302 382.826 145.182 383.442C143.985 384.099 142.92 384.971 142.041 386.016C141.144 387.042 140.442 388.223 139.97 389.5C139.534 390.705 139.345 391.984 139.414 393.262C139.491 394.532 139.827 395.773 140.401 396.908C141.661 399.325 143.808 401.162 146.392 402.035C147.597 402.428 148.872 402.565 150.134 402.437C151.414 402.314 152.658 401.942 153.795 401.341C154.996 400.692 156.065 399.823 156.945 398.779C157.843 397.749 158.538 396.558 158.992 395.27C159.422 394.064 159.611 392.786 159.548 391.508C159.473 390.236 159.138 388.993 158.565 387.855C157.966 386.64 157.121 385.562 156.083 384.69L156.079 384.684Z" fill="#004E77"/>
<path d="M128.318 385.838C128.463 385.992 128.573 386.175 128.642 386.375C128.712 386.574 128.739 386.786 128.722 386.996C128.705 387.207 128.644 387.411 128.543 387.597C128.442 387.783 128.304 387.945 128.137 388.075C127.982 388.218 127.8 388.328 127.6 388.397C127.401 388.466 127.19 388.493 126.98 388.476C126.769 388.459 126.565 388.398 126.38 388.298C126.194 388.197 126.032 388.059 125.903 387.893L114.463 374.44C114.319 374.285 114.209 374.101 114.14 373.9C114.071 373.699 114.045 373.486 114.064 373.274C114.083 373.062 114.146 372.857 114.249 372.671C114.352 372.486 114.493 372.323 114.662 372.195C114.817 372.051 115 371.941 115.199 371.871C115.399 371.802 115.61 371.775 115.821 371.791C116.031 371.808 116.236 371.869 116.422 371.97C116.607 372.07 116.77 372.208 116.899 372.375L128.318 385.838ZM139.829 364.447C139.979 364.617 140.093 364.816 140.164 365.031C140.235 365.246 140.262 365.474 140.244 365.7C140.225 365.925 140.161 366.145 140.056 366.346C139.951 366.547 139.806 366.725 139.631 366.868L121.286 382.463L119.072 379.858L137.419 364.266C137.589 364.116 137.788 364.002 138.003 363.931C138.218 363.859 138.445 363.832 138.67 363.85C138.896 363.868 139.116 363.931 139.316 364.036C139.517 364.141 139.695 364.285 139.838 364.459L139.829 364.447Z" fill="#004E77"/>
<path d="M126.304 345.501C126.966 346.54 127.497 347.658 127.884 348.828C128.267 349.954 128.475 351.131 128.502 352.32C128.552 353.304 128.322 354.281 127.838 355.139C127.505 355.392 127.147 355.617 126.799 355.849C126.644 355.962 126.46 356.029 126.268 356.042C126.077 356.056 125.886 356.015 125.716 355.925C125.534 355.85 125.37 355.736 125.235 355.592C125.1 355.448 124.998 355.276 124.936 355.089C124.816 354.683 124.839 354.249 125 353.857C125.304 352.841 125.364 351.767 125.176 350.724C124.985 349.449 124.523 348.23 123.822 347.148C123.276 346.236 122.533 345.458 121.648 344.87C120.866 344.35 119.957 344.053 119.018 344.012C118.096 343.98 117.186 344.234 116.412 344.738C115.884 345.042 115.43 345.46 115.084 345.961C114.738 346.462 114.508 347.035 114.41 347.636C114.24 348.933 114.56 350.247 115.308 351.321L116.466 353.161C116.574 353.32 116.646 353.5 116.678 353.689C116.709 353.879 116.699 354.073 116.648 354.258C116.548 354.635 116.303 354.957 115.966 355.154C115.628 355.389 115.212 355.484 114.806 355.418C114.618 355.383 114.438 355.309 114.281 355.199C114.124 355.089 113.993 354.946 113.896 354.78L112.998 353.357C112.725 352.89 112.361 352.482 111.929 352.156C111.497 351.83 111.004 351.594 110.479 351.46C109.944 351.328 109.386 351.311 108.843 351.41C108.3 351.51 107.784 351.723 107.33 352.037C106.211 352.742 105.633 353.649 105.592 354.768C105.597 356.025 105.982 357.251 106.697 358.285C107.241 359.168 107.959 359.93 108.808 360.525C109.665 361.115 110.65 361.491 111.682 361.622C112.191 361.645 112.684 361.807 113.108 362.091C113.28 362.222 113.415 362.396 113.5 362.595C113.585 362.795 113.617 363.013 113.592 363.228C113.565 363.616 113.4 363.982 113.128 364.26C112.995 364.41 112.829 364.527 112.644 364.603C112.458 364.679 112.258 364.711 112.058 364.698C109.714 364.482 107.509 363.488 105.797 361.873C104.085 360.259 102.963 358.117 102.61 355.79C102.434 354.537 102.584 353.26 103.045 352.082C103.49 350.97 104.282 350.032 105.304 349.408C106.074 348.919 106.956 348.632 107.867 348.576C108.726 348.518 109.587 348.624 110.406 348.888C111.164 349.13 111.878 349.493 112.521 349.962C113.045 350.324 113.497 350.78 113.856 351.306L112.962 351.868C112.592 351.242 112.306 350.569 112.112 349.869C111.854 348.986 111.732 348.069 111.749 347.15C111.762 346.153 112.005 345.173 112.46 344.286C113.007 343.273 113.824 342.43 114.819 341.85C116.003 341.088 117.394 340.71 118.8 340.768C120.263 340.832 121.684 341.274 122.924 342.053C124.307 342.919 125.466 344.1 126.304 345.501Z" fill="#004E77"/>
<path d="M117.235 330.587C117.325 330.795 117.371 331.019 117.372 331.245C117.373 331.472 117.328 331.696 117.241 331.905C117.153 332.114 117.024 332.303 116.862 332.461C116.699 332.619 116.507 332.742 116.295 332.824L95.455 341.34C95.2626 341.428 95.0531 341.471 94.8418 341.467C94.6305 341.463 94.4228 341.411 94.2342 341.316C93.8441 341.099 93.5395 340.755 93.3702 340.342C93.201 339.928 93.1771 339.469 93.3025 339.041C93.3737 338.842 93.4876 338.661 93.6361 338.51C93.7847 338.36 93.9644 338.244 94.1625 338.171L101.908 334.994L99.8069 329.861C99.2089 328.463 98.96 326.941 99.0816 325.425C99.1788 324.035 99.6729 322.701 100.505 321.583C101.338 320.465 102.473 319.608 103.778 319.116C105.133 318.526 106.623 318.316 108.087 318.508C109.483 318.704 110.795 319.284 111.879 320.184C113.049 321.166 113.951 322.427 114.501 323.852L117.235 330.587ZM113.651 330.198L111.552 325.068C111.222 324.207 110.699 323.432 110.023 322.804C109.4 322.241 108.624 321.876 107.793 321.756C106.848 321.641 105.889 321.786 105.02 322.175C104.134 322.496 103.356 323.062 102.778 323.806C102.305 324.469 102.043 325.26 102.029 326.075C102.02 326.993 102.202 327.903 102.566 328.746L104.665 333.877L113.651 330.198ZM109.167 310.866C109.256 311.074 109.302 311.298 109.303 311.524C109.304 311.751 109.259 311.975 109.171 312.183C109.083 312.392 108.955 312.581 108.793 312.739C108.631 312.897 108.438 313.021 108.227 313.103L87.5605 321.578C87.3507 321.672 87.1235 321.722 86.8933 321.724C86.6632 321.726 86.4352 321.68 86.2238 321.59C86.0179 321.499 85.832 321.369 85.677 321.206C85.5219 321.044 85.4008 320.852 85.3206 320.642C85.2298 320.44 85.1808 320.222 85.1764 320.001C85.1719 319.78 85.2122 319.56 85.2948 319.355C85.3846 319.145 85.5168 318.955 85.683 318.798C85.8491 318.641 86.0458 318.52 86.2607 318.443L106.951 309.974C107.155 309.882 107.374 309.831 107.597 309.825C107.821 309.819 108.043 309.857 108.251 309.938C108.46 310.02 108.65 310.145 108.808 310.305C108.966 310.464 109.088 310.656 109.167 310.866Z" fill="#004E77"/>
<path d="M106.155 299.889C106.205 300.109 106.21 300.336 106.17 300.558C106.131 300.78 106.047 300.992 105.924 301.181C105.801 301.37 105.642 301.533 105.455 301.659C105.268 301.786 105.058 301.874 104.837 301.918L82.9619 306.544C82.7404 306.598 82.5099 306.605 82.2855 306.565C82.061 306.525 81.8474 306.439 81.6584 306.311C81.4709 306.186 81.3104 306.025 81.1866 305.836C81.0628 305.648 80.9782 305.436 80.9378 305.215L79.3064 297.497C78.9958 296.165 79.0102 294.779 79.3484 293.454C79.6603 292.267 80.2908 291.189 81.1717 290.334C82.0816 289.479 83.2146 288.899 84.44 288.66C85.4576 288.429 86.5212 288.514 87.4888 288.904C88.4769 289.308 89.3413 289.966 89.9952 290.809C90.0034 289.416 90.4625 288.063 91.3039 286.951C92.1359 285.876 93.3697 285.165 95.0055 284.819C96.3678 284.493 97.7943 284.561 99.1185 285.016C100.443 285.471 101.61 286.293 102.484 287.387C103.441 288.572 104.091 289.976 104.375 291.474L106.155 299.889ZM102.707 298.858L101.292 292.138C101.119 291.231 100.752 290.372 100.214 289.621C99.738 288.961 99.079 288.455 98.3185 288.166C97.4745 287.869 96.5617 287.828 95.6941 288.047C94.8741 288.186 94.1189 288.581 93.5371 289.175C93.0155 289.756 92.6694 290.473 92.5391 291.242C92.3882 292.144 92.4166 293.067 92.6228 293.958L94.0407 300.675L102.707 298.858ZM90.9467 301.344L89.6816 295.297C89.4985 294.209 88.9555 293.214 88.1396 292.471C87.3697 291.811 86.3744 291.615 85.1536 291.884C83.9234 292.149 83.1001 292.728 82.6731 293.64C82.2375 294.653 82.1491 295.782 82.4218 296.85L83.6869 302.897L90.9467 301.344Z" fill="#004E77"/>
<path d="M101.624 275.042C101.632 275.268 101.594 275.493 101.514 275.704C101.433 275.915 101.311 276.108 101.155 276.272C100.999 276.435 100.812 276.565 100.604 276.655C100.397 276.745 100.174 276.793 99.9477 276.795L77.434 277.463C77.2218 277.474 77.0097 277.439 76.8131 277.359C76.6165 277.278 76.4403 277.155 76.2973 276.998C76.0011 276.662 75.8408 276.229 75.8476 275.781C75.8113 275.329 75.9518 274.88 76.2396 274.529C76.3742 274.367 76.5431 274.237 76.734 274.149C76.9249 274.06 77.1331 274.015 77.3435 274.017L85.7383 273.76L85.5775 268.217C85.5051 266.697 85.8017 265.182 86.442 263.801C87.0225 262.533 87.954 261.458 89.1263 260.703C90.2985 259.948 91.6624 259.544 93.0564 259.54C94.5294 259.469 95.994 259.797 97.2959 260.488C98.5326 261.162 99.5572 262.166 100.255 263.389C101.005 264.72 101.406 266.219 101.422 267.747L101.624 275.042ZM98.404 273.421L98.2463 267.876C98.2379 266.954 98.0194 266.045 97.6073 265.22C97.2224 264.474 96.6244 263.859 95.889 263.453C95.0437 263.016 94.0954 262.817 93.1453 262.877C92.2034 262.863 91.277 263.119 90.4754 263.614C89.7993 264.069 89.2769 264.718 88.9772 265.475C88.6444 266.33 88.4962 267.246 88.5423 268.162L88.7 273.707L98.404 273.421ZM101.009 253.759C101.017 253.985 100.98 254.21 100.899 254.421C100.819 254.633 100.697 254.826 100.541 254.989C100.384 255.152 100.197 255.283 99.9897 255.373C99.7823 255.463 99.559 255.51 99.333 255.513L77.0062 256.2C76.7748 256.214 76.5432 256.179 76.3261 256.098C76.1091 256.017 75.9114 255.891 75.7457 255.729C75.5842 255.572 75.4555 255.385 75.3674 255.178C75.2792 254.971 75.2333 254.748 75.2324 254.523C75.2196 254.301 75.2524 254.078 75.3287 253.869C75.405 253.66 75.5233 253.469 75.6762 253.307C75.8336 253.141 76.0235 253.01 76.2342 252.921C76.4448 252.832 76.6715 252.787 76.9 252.79L99.2499 252.133C99.4749 252.12 99.7 252.153 99.912 252.229C100.124 252.305 100.319 252.423 100.484 252.575C100.649 252.725 100.781 252.908 100.871 253.112C100.962 253.316 101.009 253.536 101.009 253.759Z" fill="#004E77"/>
<path d="M106.235 221.06C105.823 222.832 105.072 224.508 104.025 225.996C103.058 227.359 101.819 228.506 100.386 229.364C98.9431 230.224 97.3419 230.783 95.6781 231.009C93.87 231.241 92.0347 231.127 90.2693 230.675C88.4994 230.266 86.8244 229.521 85.3347 228.482C83.9655 227.525 82.8042 226.301 81.9205 224.883C81.0461 223.454 80.4804 221.858 80.2597 220.197C79.8112 216.568 80.7086 212.9 82.7821 209.887C83.7545 208.522 84.998 207.373 86.4346 206.51C87.8713 205.647 89.4703 205.089 91.1317 204.872C92.9344 204.639 94.7646 204.752 96.5246 205.204C98.2994 205.616 99.98 206.36 101.478 207.397C102.857 208.352 104.022 209.583 104.901 211.012C105.78 212.44 106.353 214.036 106.584 215.697C106.814 217.49 106.696 219.311 106.235 221.06ZM103.218 220.326C103.556 219.014 103.619 217.648 103.405 216.311C103.199 215.052 102.743 213.848 102.063 212.769C101.375 211.682 100.471 210.748 99.4077 210.023C97.1281 208.49 94.3768 207.819 91.646 208.128C90.3738 208.282 89.146 208.694 88.0373 209.337C86.9383 209.979 85.9821 210.838 85.2275 211.863C83.6406 214.083 82.9678 216.827 83.3484 219.528C83.5435 220.781 83.9968 221.98 84.6798 223.049C85.3747 224.13 86.2771 225.064 87.3349 225.795C89.6052 227.346 92.3623 228.02 95.0936 227.692C96.3645 227.527 97.5913 227.115 98.7053 226.481C99.8063 225.847 100.766 224.994 101.526 223.975C102.34 222.895 102.92 221.657 103.229 220.341L103.218 220.326Z" fill="#004E77"/>
<path d="M113.955 196.697C113.871 196.907 113.745 197.098 113.586 197.259C113.426 197.419 113.236 197.546 113.027 197.632C112.817 197.718 112.593 197.761 112.366 197.758C112.14 197.755 111.917 197.706 111.71 197.615L89.5106 188.295L90.8447 185.128L113.041 194.45C113.25 194.535 113.441 194.662 113.601 194.822C113.761 194.981 113.888 195.172 113.973 195.381C114.059 195.591 114.101 195.816 114.098 196.042C114.096 196.268 114.047 196.492 113.957 196.7L113.955 196.697ZM89.6799 196.111C89.5532 196.398 89.3458 196.641 89.0831 196.812C88.8203 196.982 88.5137 197.073 88.2004 197.072C87.8872 197.072 87.581 196.98 87.3192 196.808C87.0574 196.637 86.8513 196.392 86.7261 196.105C86.6463 195.912 86.6075 195.703 86.6122 195.494C86.6168 195.284 86.6648 195.078 86.7532 194.888L93.5989 178.6C93.6743 178.404 93.7888 178.224 93.9354 178.073C94.082 177.922 94.2578 177.803 94.452 177.721C94.8496 177.578 95.2865 177.589 95.6762 177.752C96.0658 177.916 96.3797 178.22 96.5557 178.604C96.6337 178.798 96.6715 179.006 96.6669 179.215C96.6623 179.424 96.6152 179.631 96.5286 179.821L89.6799 196.111Z" fill="#004E77"/>
<path d="M124.801 176.088C124.161 177.147 123.392 178.122 122.512 178.991C121.678 179.838 120.719 180.553 119.668 181.11C118.81 181.598 117.832 181.835 116.846 181.79C116.477 181.594 116.114 181.394 115.751 181.193C115.581 181.105 115.439 180.971 115.342 180.806C115.244 180.641 115.194 180.452 115.198 180.26C115.183 180.061 115.211 179.861 115.281 179.673C115.351 179.486 115.461 179.316 115.603 179.175C115.911 178.885 116.31 178.709 116.732 178.677C117.774 178.495 118.759 178.071 119.608 177.44C120.66 176.695 121.543 175.735 122.197 174.624C122.764 173.725 123.125 172.713 123.255 171.658C123.366 170.729 123.221 169.787 122.836 168.935C122.458 168.077 121.822 167.36 121.015 166.883C120.506 166.548 119.929 166.332 119.325 166.248C118.722 166.164 118.107 166.216 117.525 166.399C116.286 166.825 115.25 167.7 114.62 168.85L113.492 170.715C113.4 170.883 113.272 171.028 113.117 171.141C112.962 171.254 112.785 171.332 112.597 171.369C112.214 171.446 111.817 171.373 111.487 171.165C111.124 170.968 110.853 170.638 110.729 170.245C110.68 170.062 110.669 169.871 110.699 169.684C110.728 169.498 110.797 169.319 110.9 169.161L111.773 167.719C112.065 167.264 112.265 166.757 112.36 166.226C112.456 165.695 112.446 165.15 112.331 164.623C112.208 164.085 111.971 163.58 111.637 163.142C111.303 162.703 110.879 162.341 110.393 162.079C109.262 161.395 108.189 161.288 107.174 161.756C106.052 162.324 105.128 163.219 104.524 164.323C103.981 165.206 103.624 166.191 103.473 167.216C103.331 168.247 103.436 169.296 103.781 170.277C103.989 170.742 104.067 171.255 104.005 171.761C103.963 171.974 103.867 172.173 103.726 172.338C103.586 172.504 103.406 172.63 103.202 172.707C102.844 172.856 102.444 172.873 102.075 172.755C101.879 172.705 101.698 172.61 101.546 172.477C101.394 172.345 101.274 172.179 101.198 171.992C100.602 170.616 100.323 169.124 100.382 167.625C100.508 166.031 100.978 164.482 101.761 163.086C102.544 161.691 103.62 160.482 104.915 159.542C105.957 158.822 107.167 158.382 108.427 158.264C109.614 158.164 110.801 158.448 111.814 159.075C112.615 159.538 113.283 160.2 113.755 160.997C114.195 161.733 114.491 162.547 114.626 163.394C114.757 164.182 114.758 164.987 114.631 165.775C114.54 166.405 114.336 167.013 114.027 167.57L113.13 167.019C113.523 166.405 113.997 165.847 114.539 165.359C115.212 164.734 115.974 164.213 116.801 163.812C117.7 163.377 118.686 163.154 119.684 163.161C120.833 163.191 121.951 163.538 122.915 164.163C124.128 164.878 125.09 165.951 125.669 167.234C126.268 168.57 126.51 170.039 126.372 171.497C126.219 173.13 125.681 174.703 124.801 176.088Z" fill="#004E77"/>
<path d="M134.049 161.275C133.902 161.448 133.723 161.59 133.521 161.692C133.319 161.794 133.098 161.854 132.872 161.87C132.647 161.885 132.42 161.855 132.206 161.782C131.992 161.708 131.795 161.592 131.627 161.441L114.666 146.643C114.502 146.509 114.37 146.34 114.28 146.148C114.19 145.955 114.144 145.746 114.145 145.533C114.153 145.087 114.325 144.659 114.628 144.331C114.913 143.985 115.32 143.759 115.764 143.699C115.974 143.672 116.186 143.692 116.387 143.757C116.587 143.822 116.771 143.931 116.924 144.075L123.245 149.585L126.894 145.403C127.872 144.236 129.12 143.323 130.529 142.745C131.814 142.212 133.226 142.058 134.595 142.302C135.965 142.546 137.236 143.177 138.258 144.12C139.388 145.057 140.245 146.281 140.737 147.663C141.187 148.998 141.256 150.431 140.937 151.804C140.584 153.29 139.859 154.663 138.83 155.792L134.049 161.275ZM132.794 157.911L136.432 153.709C137.053 153.026 137.511 152.211 137.771 151.325C137.994 150.515 137.972 149.657 137.707 148.86C137.385 147.966 136.826 147.175 136.089 146.573C135.406 145.924 134.552 145.483 133.627 145.302C132.824 145.184 132.004 145.31 131.273 145.664C130.448 146.068 129.717 146.641 129.127 147.346L125.481 151.525L132.794 157.911ZM148.059 145.234C147.913 145.407 147.734 145.549 147.532 145.651C147.33 145.754 147.109 145.814 146.883 145.83C146.657 145.845 146.43 145.815 146.216 145.741C146.002 145.668 145.805 145.551 145.637 145.4L128.781 130.713C128.603 130.568 128.457 130.388 128.353 130.183C128.249 129.978 128.188 129.754 128.176 129.524C128.163 129.299 128.195 129.074 128.272 128.862C128.348 128.65 128.466 128.455 128.62 128.29C128.761 128.117 128.935 127.976 129.133 127.873C129.331 127.771 129.548 127.71 129.77 127.695C129.998 127.682 130.225 127.716 130.44 127.794C130.654 127.871 130.85 127.992 131.017 128.147L147.862 142.832C148.035 142.976 148.177 143.153 148.281 143.352C148.385 143.552 148.447 143.77 148.466 143.994C148.487 144.216 148.462 144.44 148.391 144.652C148.32 144.863 148.206 145.058 148.055 145.222L148.059 145.234Z" fill="#004E77"/>
<path d="M156.527 137.577C156.352 137.721 156.15 137.829 155.933 137.893C155.716 137.958 155.489 137.979 155.264 137.954C155.039 137.929 154.822 137.859 154.624 137.749C154.427 137.639 154.253 137.49 154.114 137.312L140.152 119.877C140.002 119.704 139.889 119.501 139.822 119.282C139.756 119.062 139.736 118.831 139.764 118.604C139.792 118.38 139.865 118.164 139.977 117.968C140.09 117.773 140.24 117.602 140.42 117.465L146.584 112.532C147.626 111.649 148.867 111.032 150.2 110.731C151.399 110.475 152.645 110.552 153.804 110.952C154.987 111.377 156.023 112.131 156.791 113.126C157.45 113.93 157.848 114.916 157.933 115.953C158.016 117.021 157.816 118.092 157.354 119.059C158.603 118.441 160.017 118.243 161.387 118.496C162.721 118.751 163.91 119.532 164.956 120.837C165.858 121.906 166.438 123.21 166.627 124.597C166.817 125.984 166.608 127.396 166.025 128.669C165.397 130.059 164.436 131.272 163.227 132.202L156.527 137.577ZM155.887 134.03L161.249 129.736C161.976 129.176 162.574 128.466 163.004 127.655C163.38 126.932 163.536 126.116 163.453 125.306C163.336 124.419 162.962 123.587 162.378 122.91C161.885 122.241 161.191 121.745 160.398 121.495C159.645 121.289 158.849 121.303 158.104 121.535C157.231 121.806 156.42 122.247 155.718 122.833L150.356 127.127L155.887 134.03ZM148.376 124.653L153.198 120.789C154.088 120.136 154.733 119.202 155.031 118.139C155.275 117.157 155.002 116.177 154.22 115.195C153.438 114.212 152.54 113.741 151.537 113.771C150.437 113.839 149.389 114.268 148.557 114.991L143.739 118.853L148.376 124.653Z" fill="#004E77"/>
<path d="M195.4 112.131C195.203 112.245 194.985 112.318 194.758 112.344C194.532 112.37 194.303 112.35 194.085 112.284C193.867 112.22 193.665 112.114 193.49 111.97C193.315 111.826 193.171 111.649 193.066 111.448L182.404 91.81C182.289 91.6126 182.217 91.3937 182.191 91.1671C182.166 90.9404 182.187 90.7108 182.254 90.4928C182.322 90.2781 182.431 90.079 182.576 89.907C182.722 89.735 182.9 89.5937 183.1 89.4912C183.293 89.3782 183.506 89.3059 183.728 89.279C183.95 89.2521 184.175 89.271 184.389 89.3347C184.607 89.402 184.809 89.5129 184.983 89.6606C185.157 89.8084 185.299 89.9899 185.401 90.1943L196.064 109.832C196.178 110.027 196.251 110.244 196.279 110.468C196.307 110.692 196.29 110.92 196.228 111.138C196.167 111.352 196.062 111.551 195.92 111.722C195.777 111.893 195.6 112.032 195.4 112.131ZM176.687 122.312C176.49 122.423 176.272 122.494 176.047 122.52C175.822 122.546 175.594 122.526 175.376 122.462C175.159 122.398 174.957 122.291 174.782 122.148C174.606 122.004 174.462 121.827 174.356 121.626L163.592 101.856C163.486 101.673 163.422 101.468 163.404 101.257C163.387 101.045 163.417 100.833 163.493 100.635C163.653 100.219 163.962 99.8767 164.36 99.674C164.749 99.4396 165.212 99.3627 165.656 99.459C165.861 99.5034 166.053 99.5922 166.22 99.719C166.387 99.8458 166.523 100.008 166.621 100.193L170.627 107.557L175.5 104.908C176.821 104.159 178.303 103.74 179.82 103.687C181.215 103.626 182.597 103.967 183.803 104.67C185.008 105.373 185.986 106.407 186.619 107.651C187.349 108.931 187.718 110.385 187.686 111.859C187.645 113.267 187.211 114.635 186.433 115.809C185.59 117.086 184.436 118.128 183.081 118.839L176.687 122.312ZM176.681 118.707L181.557 116.042C182.376 115.615 183.089 115.009 183.641 114.268C184.133 113.587 184.41 112.775 184.437 111.935C184.448 110.985 184.2 110.049 183.721 109.229C183.305 108.383 182.658 107.672 181.854 107.179C181.143 106.783 180.328 106.61 179.516 106.685C178.604 106.777 177.72 107.06 176.923 107.515L172.046 110.167L176.681 118.707Z" fill="#004E77"/>
<path d="M226.914 102.076C225.147 102.504 223.314 102.587 221.516 102.32C219.859 102.07 218.272 101.479 216.855 100.586C215.444 99.6765 214.232 98.4906 213.292 97.1C211.278 94.0407 210.432 90.3576 210.911 86.7245C211.154 85.0692 211.729 83.4798 212.601 82.0513C213.483 80.627 214.649 79.4005 216.028 78.4491C217.53 77.4227 219.216 76.6957 220.993 76.308C222.755 75.8795 224.584 75.7987 226.376 76.0702C228.029 76.3243 229.611 76.9161 231.024 77.8089C232.438 78.7016 233.651 79.876 234.59 81.2588C235.608 82.7629 236.328 84.4484 236.711 86.2241C237.14 87.9945 237.229 89.8304 236.971 91.6342C236.736 93.2966 236.158 94.8922 235.274 96.3204C234.391 97.7485 233.221 98.9783 231.838 99.9318C230.35 100.957 228.678 101.685 226.914 102.076ZM226.219 99.052C227.54 98.7618 228.788 98.204 229.886 97.4129C230.922 96.6637 231.795 95.7116 232.452 94.6144C233.109 93.5173 233.536 92.2982 233.706 91.0313C234.054 88.3057 233.42 85.5459 231.919 83.2462C231.211 82.1772 230.293 81.2637 229.22 80.5615C228.153 79.8688 226.956 79.4013 225.701 79.1879C223.006 78.7698 220.253 79.4038 218.011 80.9587C216.977 81.6953 216.108 82.6397 215.461 83.7313C214.811 84.8353 214.384 86.0553 214.202 87.3227C213.835 90.0492 214.47 92.8153 215.989 95.1079C216.705 96.1706 217.623 97.082 218.691 97.7902C219.752 98.4885 220.944 98.9626 222.196 99.1836C223.531 99.4159 224.901 99.3711 226.219 99.052Z" fill="#004E77"/>
<path d="M252.152 97.9928C251.926 98.0118 251.699 97.9852 251.484 97.9148C251.268 97.8443 251.069 97.7313 250.899 97.5825C250.728 97.4338 250.589 97.2522 250.49 97.0486C250.39 96.845 250.333 96.6236 250.321 96.3974L248.712 72.3865L252.141 72.1586L253.763 96.1792C253.782 96.405 253.755 96.6323 253.684 96.8476C253.613 97.063 253.5 97.2618 253.351 97.4325C253.202 97.6031 253.02 97.742 252.816 97.8409C252.612 97.9397 252.39 97.9965 252.163 98.0079L252.152 97.9928ZM241.807 76.0287C241.387 76.0582 240.972 75.9194 240.654 75.6429C240.336 75.3664 240.141 74.9749 240.112 74.5544C240.083 74.1339 240.222 73.719 240.498 73.4009C240.775 73.0827 241.167 72.8874 241.588 72.858L259.214 71.6639C259.424 71.6398 259.636 71.6596 259.838 71.7222C260.04 71.7848 260.226 71.8888 260.385 72.0275C260.544 72.1661 260.672 72.3365 260.762 72.5276C260.851 72.7188 260.9 72.9265 260.905 73.1375C260.925 73.3468 260.902 73.5581 260.838 73.7585C260.774 73.9588 260.67 74.1442 260.532 74.3032C260.394 74.4621 260.225 74.5905 260.035 74.6805C259.844 74.7704 259.637 74.8198 259.427 74.8256L241.807 76.0287Z" fill="#004E77"/>
<path d="M275.447 98.4377C274.214 98.3378 272.998 98.0884 271.826 97.6948C270.694 97.3322 269.624 96.7979 268.653 96.1106C267.834 95.5651 267.187 94.7978 266.787 93.8984C266.798 93.4801 266.814 93.0625 266.838 92.6434C266.839 92.4516 266.894 92.2639 266.997 92.1017C267.099 91.9394 267.245 91.8089 267.418 91.7251C267.59 91.6228 267.782 91.5586 267.981 91.5369C268.18 91.5152 268.382 91.5364 268.572 91.5992C268.969 91.7441 269.303 92.0216 269.519 92.3849C270.155 93.2331 270.983 93.9197 271.933 94.3895C273.066 94.9967 274.316 95.3554 275.598 95.4416C276.656 95.5442 277.724 95.4117 278.725 95.0537C279.605 94.7337 280.38 94.1791 280.968 93.4499C281.545 92.7294 281.884 91.848 281.938 90.9272C282.01 90.3226 281.946 89.7099 281.75 89.1336C281.555 88.5572 281.233 88.0319 280.809 87.5958C279.872 86.6787 278.625 86.1463 277.315 86.1036L275.141 85.9377C274.95 85.9284 274.763 85.8784 274.592 85.791C274.422 85.7036 274.272 85.5808 274.153 85.4308C273.912 85.1172 273.802 84.7215 273.848 84.3281C273.864 83.9169 274.037 83.5273 274.331 83.2398C274.474 83.1106 274.643 83.0139 274.827 82.9564C275.01 82.8989 275.204 82.8819 275.395 82.9066L277.076 83.0332C277.613 83.09 278.155 83.0402 278.673 82.8865C279.191 82.7328 279.673 82.4783 280.092 82.1376C280.518 81.7871 280.864 81.3498 281.108 80.8551C281.352 80.3603 281.487 79.8193 281.505 79.2683C281.608 77.9499 281.223 76.943 280.35 76.2475C279.337 75.5015 278.123 75.0799 276.866 75.0384C275.831 74.9506 274.788 75.0744 273.802 75.4023C272.818 75.7398 271.928 76.3078 271.208 77.0589C270.883 77.4595 270.454 77.7632 269.968 77.9368C269.76 77.9912 269.543 77.9918 269.335 77.9387C269.128 77.8856 268.938 77.7805 268.782 77.6334C268.476 77.3815 268.275 77.0254 268.216 76.6337C268.175 76.4372 268.179 76.2338 268.229 76.0392C268.278 75.8445 268.371 75.6636 268.501 75.5105C269.465 74.361 270.674 73.4407 272.038 72.8166C273.519 72.212 275.114 71.9358 276.713 72.0069C278.311 72.078 279.874 72.4948 281.295 73.2286C282.406 73.8349 283.342 74.7164 284.014 75.7886C284.634 76.8041 284.914 77.9919 284.81 79.178C284.754 80.1031 284.462 80.9986 283.962 81.7795C283.496 82.5019 282.897 83.1296 282.197 83.6292C281.552 84.0958 280.836 84.4546 280.076 84.6916C279.474 84.8961 278.839 84.9885 278.203 84.9643L278.284 83.911C279.008 83.9859 279.719 84.1564 280.398 84.4182C281.259 84.7379 282.067 85.1846 282.796 85.7436C283.588 86.3495 284.23 87.1301 284.672 88.0248C285.161 89.0646 285.352 90.2199 285.224 91.3622C285.13 92.7662 284.605 94.1073 283.72 95.2021C282.795 96.3397 281.591 97.2177 280.225 97.7499C278.708 98.3497 277.071 98.5853 275.447 98.4377Z" fill="#004E77"/>
<path d="M313.484 105.256C313.263 105.203 313.056 105.107 312.873 104.973C312.69 104.839 312.537 104.67 312.421 104.475C312.305 104.28 312.23 104.064 312.199 103.84C312.168 103.616 312.183 103.387 312.242 103.169L317.756 81.5049C317.804 81.2808 317.899 81.0694 318.034 80.8842C318.17 80.6991 318.342 80.5444 318.541 80.4302C318.737 80.3167 318.953 80.2435 319.177 80.2152C319.402 80.1869 319.629 80.2038 319.847 80.2651C320.065 80.3125 320.271 80.4041 320.452 80.5342C320.634 80.6644 320.786 80.8304 320.901 81.0219C321.013 81.2191 321.085 81.4369 321.112 81.6624C321.138 81.8879 321.119 82.1164 321.056 82.3345L315.553 103.994C315.502 104.213 315.408 104.42 315.276 104.602C315.145 104.784 314.978 104.938 314.786 105.055C314.596 105.179 314.381 105.261 314.156 105.295C313.932 105.33 313.703 105.316 313.484 105.256ZM292.846 100.021C292.625 99.9691 292.417 99.873 292.235 99.7389C292.052 99.6048 291.899 99.4354 291.783 99.2407C291.667 99.0461 291.592 98.8301 291.561 98.6057C291.53 98.3812 291.545 98.1529 291.604 97.9342L297.171 76.1016C297.216 75.894 297.308 75.6993 297.439 75.5322C297.571 75.3651 297.739 75.23 297.93 75.1371C298.329 74.9422 298.786 74.9016 299.213 75.0231C299.656 75.1158 300.047 75.3738 300.306 75.7447C300.424 75.9198 300.502 76.1185 300.534 76.3268C300.567 76.5351 300.553 76.7481 300.495 76.9508L298.425 85.0795L303.803 86.4439C305.286 86.7877 306.662 87.4873 307.813 88.4823C308.874 89.3867 309.652 90.5766 310.056 91.9108C310.46 93.2449 310.472 94.6672 310.091 96.0086C309.744 97.4426 309.018 98.7571 307.988 99.8137C307.006 100.822 305.762 101.537 304.396 101.877C302.909 102.235 301.357 102.21 299.883 101.805L292.846 100.021ZM295.288 97.3696L300.656 98.7219C301.545 98.9676 302.479 99.0065 303.387 98.8357C304.211 98.6694 304.966 98.2601 305.555 97.6606C306.209 96.9693 306.663 96.113 306.866 95.1837C307.139 94.2815 307.147 93.3204 306.89 92.414C306.637 91.6401 306.158 90.9603 305.514 90.4629C304.782 89.9103 303.942 89.5183 303.048 89.3126L297.671 87.9482L295.288 97.3696Z" fill="#004E77"/>
<path d="M324.129 109.345C323.922 109.255 323.735 109.123 323.579 108.959C323.424 108.795 323.303 108.601 323.224 108.389C323.145 108.177 323.109 107.951 323.119 107.725C323.129 107.499 323.184 107.277 323.281 107.073L332.554 86.7283C332.641 86.5161 332.773 86.3245 332.939 86.166C333.105 86.0074 333.302 85.8854 333.518 85.8078C333.731 85.731 333.956 85.6975 334.181 85.7093C334.407 85.7211 334.628 85.7779 334.831 85.8765L342.018 89.153C343.267 89.6935 344.369 90.5255 345.231 91.5793C346.001 92.5328 346.494 93.6792 346.658 94.894C346.814 96.1425 346.608 97.4099 346.065 98.5454C345.644 99.496 344.944 100.297 344.058 100.842C343.14 101.399 342.092 101.704 341.019 101.726C342.135 102.559 342.95 103.731 343.344 105.067C343.708 106.38 343.546 107.794 342.858 109.31C342.309 110.598 341.405 111.704 340.252 112.498C339.098 113.293 337.742 113.742 336.343 113.795C334.82 113.86 333.305 113.551 331.929 112.894L324.129 109.345ZM326.999 107.16L333.262 110.019C334.09 110.417 334.995 110.631 335.915 110.645C336.727 110.654 337.525 110.425 338.209 109.985C338.947 109.48 339.523 108.771 339.867 107.945C340.242 107.201 340.372 106.358 340.237 105.536C340.081 104.766 339.707 104.058 339.159 103.495C338.523 102.839 337.763 102.314 336.923 101.951L330.677 99.1073L326.999 107.16ZM331.98 96.2123L337.596 98.7679C338.582 99.2642 339.705 99.4158 340.788 99.1983C341.775 98.9705 342.527 98.2866 343.043 97.1467C343.559 96.0068 343.582 94.9926 343.112 94.1042C342.554 93.154 341.699 92.4143 340.678 91.9997L335.059 89.441L331.98 96.2123Z" fill="#004E77"/>
<path d="M364.308 132.577C364.12 132.451 363.959 132.288 363.836 132.098C363.712 131.909 363.627 131.696 363.587 131.474C363.547 131.251 363.552 131.022 363.601 130.801C363.651 130.58 363.745 130.371 363.877 130.187L376.627 111.839C376.75 111.646 376.913 111.481 377.105 111.355C377.297 111.229 377.513 111.144 377.739 111.106C377.961 111.069 378.188 111.076 378.407 111.128C378.626 111.18 378.832 111.275 379.014 111.408C379.201 111.529 379.362 111.688 379.485 111.873C379.609 112.059 379.692 112.268 379.731 112.488C379.77 112.714 379.762 112.944 379.708 113.167C379.654 113.389 379.556 113.598 379.418 113.781L366.668 132.129C366.544 132.317 366.383 132.478 366.196 132.604C366.009 132.729 365.799 132.816 365.578 132.859C365.358 132.903 365.132 132.9 364.913 132.852C364.695 132.803 364.488 132.709 364.308 132.577ZM346.82 120.432C346.633 120.305 346.473 120.141 346.35 119.951C346.226 119.762 346.142 119.549 346.103 119.326C346.063 119.103 346.068 118.875 346.117 118.654C346.167 118.433 346.26 118.224 346.392 118.04L359.251 99.5468C359.366 99.3687 359.519 99.2188 359.7 99.1082C359.881 98.9976 360.085 98.9291 360.296 98.9079C360.742 98.8792 361.184 99.002 361.552 99.2566C361.919 99.5111 362.189 99.8823 362.318 100.31C362.367 100.515 362.369 100.729 362.326 100.935C362.283 101.142 362.196 101.336 362.069 101.506L357.288 108.386L361.844 111.548C363.109 112.395 364.15 113.534 364.879 114.869C365.554 116.088 365.864 117.476 365.774 118.867C365.683 120.258 365.195 121.595 364.367 122.717C363.551 123.945 362.417 124.929 361.086 125.565C359.808 126.158 358.391 126.384 356.992 126.218C355.475 126.032 354.029 125.464 352.791 124.568L346.82 120.432ZM350.041 118.808L354.595 121.968C355.342 122.511 356.203 122.876 357.112 123.036C357.941 123.168 358.791 123.052 359.554 122.702C360.409 122.282 361.135 121.639 361.654 120.84C362.224 120.09 362.569 119.192 362.647 118.253C362.683 117.439 362.472 116.634 362.042 115.943C361.551 115.168 360.903 114.505 360.139 113.997L355.583 110.834L350.041 118.808Z" fill="#004E77"/>
</g>
<defs>
<clipPath id="clip0_835_437">
<rect width="369.948" height="369.948" fill="white" transform="translate(224.166 518.464) rotate(-127.297)"/>
</clipPath>
</defs>
</svg>
