<svg width="58" height="58" viewBox="0 0 58 58" fill="none" xmlns="http://www.w3.org/2000/svg">
<rect x="1" y="1" width="56" height="56" rx="28" fill="white"/>
<rect x="1" y="1" width="56" height="56" rx="28" stroke="#0091E9" stroke-width="2"/>
<path d="M29.632 37C28.48 37 27.448 36.736 26.536 36.208C25.624 35.664 24.896 34.936 24.352 34.024C23.824 33.096 23.56 32.056 23.56 30.904C23.56 30.632 23.648 30.408 23.824 30.232C24 30.056 24.216 29.968 24.472 29.968C24.744 29.968 24.968 30.056 25.144 30.232C25.336 30.408 25.432 30.632 25.432 30.904C25.432 31.704 25.616 32.424 25.984 33.064C26.352 33.704 26.848 34.208 27.472 34.576C28.112 34.944 28.832 35.128 29.632 35.128C30.432 35.128 31.152 34.944 31.792 34.576C32.432 34.208 32.936 33.704 33.304 33.064C33.672 32.424 33.856 31.704 33.856 30.904C33.856 30.104 33.672 29.384 33.304 28.744C32.936 28.104 32.432 27.6 31.792 27.232C31.152 26.864 30.432 26.68 29.632 26.68H25.432C25.16 26.68 24.936 26.592 24.76 26.416C24.584 26.224 24.496 26 24.496 25.744V19.168C24.496 18.912 24.584 18.696 24.76 18.52C24.936 18.328 25.16 18.232 25.432 18.232H33.856C34.112 18.232 34.328 18.328 34.504 18.52C34.696 18.696 34.792 18.912 34.792 19.168C34.792 19.424 34.704 19.648 34.528 19.84C34.352 20.016 34.128 20.104 33.856 20.104H26.344V24.808H29.632C30.8 24.808 31.84 25.08 32.752 25.624C33.664 26.152 34.384 26.88 34.912 27.808C35.456 28.72 35.728 29.752 35.728 30.904C35.728 32.056 35.456 33.096 34.912 34.024C34.384 34.936 33.664 35.664 32.752 36.208C31.84 36.736 30.8 37 29.632 37Z" fill="#0091E9"/>
</svg>
