<svg width="58" height="58" viewBox="0 0 58 58" fill="none" xmlns="http://www.w3.org/2000/svg">
<rect x="1" y="1" width="56" height="56" rx="28" fill="white"/>
<rect x="1" y="1" width="56" height="56" rx="28" stroke="#0091E9" stroke-width="2"/>
<path d="M32.2813 37C32.0413 37 31.8333 36.912 31.6573 36.736C31.4813 36.56 31.3933 36.336 31.3933 36.064V32.512H22.8013C22.5453 32.512 22.3293 32.432 22.1533 32.272C21.9933 32.096 21.8973 31.896 21.8653 31.672C21.8493 31.448 21.9133 31.24 22.0573 31.048L31.5613 18.616C31.6413 18.504 31.7373 18.416 31.8493 18.352C31.9773 18.272 32.1373 18.232 32.3293 18.232C32.5853 18.232 32.7933 18.328 32.9533 18.52C33.1293 18.696 33.2173 18.92 33.2173 19.192V30.832H35.1133C35.3693 30.832 35.5853 30.896 35.7613 31.024C35.9373 31.152 36.0253 31.376 36.0253 31.696C36.0253 31.904 35.9373 32.096 35.7613 32.272C35.5853 32.432 35.3693 32.512 35.1133 32.512H33.2173V36.064C33.2173 36.336 33.1293 36.56 32.9533 36.736C32.7773 36.912 32.5533 37 32.2813 37ZM23.8093 31.552L23.4733 30.832H31.3933V20.536L31.8733 21.04L23.8093 31.552Z" fill="#0091E9"/>
</svg>
