<svg width="58" height="58" viewBox="0 0 58 58" fill="none" xmlns="http://www.w3.org/2000/svg">
<rect x="1" y="1" width="56" height="56" rx="28" fill="white"/>
<rect x="1" y="1" width="56" height="56" rx="28" stroke="#0091E9" stroke-width="2"/>
<path d="M30.2 37.12C29.08 37.12 28.072 36.88 27.176 36.4C26.296 35.904 25.6 35.232 25.088 34.384C24.576 33.536 24.32 32.576 24.32 31.504C24.32 31.232 24.4 31 24.56 30.808C24.72 30.616 24.936 30.52 25.208 30.52C25.48 30.52 25.696 30.616 25.856 30.808C26.016 31 26.096 31.232 26.096 31.504C26.096 32.24 26.272 32.904 26.624 33.496C26.976 34.072 27.456 34.536 28.064 34.888C28.688 35.224 29.376 35.392 30.128 35.392C31.376 35.392 32.352 35.048 33.056 34.36C33.76 33.656 34.112 32.752 34.112 31.648C34.112 30.864 33.944 30.184 33.608 29.608C33.272 29.016 32.816 28.56 32.24 28.24C31.664 27.904 31.016 27.736 30.296 27.736C30.04 27.736 29.824 27.648 29.648 27.472C29.472 27.296 29.384 27.072 29.384 26.8C29.384 26.544 29.472 26.328 29.648 26.152C29.824 25.976 30.04 25.888 30.296 25.888C30.856 25.888 31.368 25.752 31.832 25.48C32.312 25.192 32.696 24.816 32.984 24.352C33.272 23.888 33.416 23.376 33.416 22.816C33.416 21.968 33.128 21.264 32.552 20.704C31.976 20.128 31.208 19.84 30.248 19.84C29.576 19.84 28.976 19.976 28.448 20.248C27.92 20.504 27.504 20.856 27.2 21.304C26.912 21.736 26.768 22.232 26.768 22.792C26.768 23.064 26.68 23.296 26.504 23.488C26.344 23.664 26.136 23.752 25.88 23.752C25.608 23.752 25.392 23.664 25.232 23.488C25.072 23.296 24.992 23.072 24.992 22.816C24.992 21.936 25.216 21.144 25.664 20.44C26.128 19.72 26.752 19.16 27.536 18.76C28.32 18.344 29.224 18.136 30.248 18.136C31.176 18.136 32.008 18.344 32.744 18.76C33.496 19.16 34.088 19.72 34.52 20.44C34.968 21.144 35.192 21.936 35.192 22.816C35.192 23.36 35.056 23.888 34.784 24.4C34.528 24.912 34.184 25.376 33.752 25.792C33.32 26.192 32.848 26.504 32.336 26.728C33.152 26.968 33.832 27.336 34.376 27.832C34.92 28.328 35.32 28.912 35.576 29.584C35.832 30.24 35.96 30.928 35.96 31.648C35.96 32.704 35.704 33.648 35.192 34.48C34.696 35.296 34.008 35.944 33.128 36.424C32.248 36.888 31.272 37.12 30.2 37.12Z" fill="#0091E9"/>
</svg>
