<svg width="58" height="58" viewBox="0 0 58 58" fill="none" xmlns="http://www.w3.org/2000/svg">
<rect x="1" y="1" width="56" height="56" rx="28" fill="white"/>
<rect x="1" y="1" width="56" height="56" rx="28" stroke="#0091E9" stroke-width="2"/>
<path d="M28.736 37C28.48 37 28.256 36.912 28.064 36.736C27.888 36.56 27.8 36.336 27.8 36.064V20.464L25.4 21.304C25.224 21.384 25.064 21.424 24.92 21.424C24.648 21.424 24.424 21.336 24.248 21.16C24.072 20.984 23.984 20.768 23.984 20.512C23.984 20.32 24.024 20.144 24.104 19.984C24.2 19.824 24.36 19.704 24.584 19.624L28.28 18.352C28.36 18.32 28.44 18.296 28.52 18.28C28.616 18.248 28.696 18.232 28.76 18.232C29.032 18.232 29.248 18.328 29.408 18.52C29.584 18.696 29.672 18.912 29.672 19.168V36.064C29.672 36.336 29.584 36.56 29.408 36.736C29.232 36.912 29.008 37 28.736 37Z" fill="#0091E9"/>
</svg>
