<svg width="58" height="58" viewBox="0 0 58 58" fill="none" xmlns="http://www.w3.org/2000/svg">
<rect x="1" y="1" width="56" height="56" rx="28" fill="white"/>
<rect x="1" y="1" width="56" height="56" rx="28" stroke="#0091E9" stroke-width="2"/>
<path d="M29.2 37C28.112 37 27.144 36.76 26.296 36.28C25.448 35.784 24.776 35.112 24.28 34.264C23.8 33.416 23.56 32.448 23.56 31.36C23.56 30.288 23.8 29.328 24.28 28.48C24.776 27.616 25.448 26.944 26.296 26.464C27.144 25.968 28.112 25.72 29.2 25.72C30.272 25.72 31.232 25.968 32.08 26.464C32.928 26.944 33.592 27.616 34.072 28.48C34.568 29.328 34.816 30.288 34.816 31.36C34.816 32.448 34.568 33.416 34.072 34.264C33.592 35.112 32.928 35.784 32.08 36.28C31.232 36.76 30.272 37 29.2 37ZM29.176 35.272C29.912 35.272 30.568 35.104 31.144 34.768C31.736 34.432 32.2 33.968 32.536 33.376C32.872 32.784 33.04 32.112 33.04 31.36C33.04 30.608 32.872 29.936 32.536 29.344C32.2 28.752 31.736 28.288 31.144 27.952C30.568 27.6 29.912 27.424 29.176 27.424C28.44 27.424 27.784 27.6 27.208 27.952C26.632 28.288 26.176 28.752 25.84 29.344C25.504 29.936 25.336 30.608 25.336 31.36C25.336 32.112 25.504 32.784 25.84 33.376C26.176 33.968 26.632 34.432 27.208 34.768C27.784 35.104 28.44 35.272 29.176 35.272ZM24.256 28.504L30.184 18.76C30.392 18.424 30.672 18.256 31.024 18.256C31.264 18.256 31.472 18.328 31.648 18.472C31.824 18.616 31.928 18.8 31.96 19.024C32.008 19.248 31.968 19.464 31.84 19.672L27.88 26.128L24.256 28.504Z" fill="#0091E9"/>
</svg>
