<svg width="58" height="58" viewBox="0 0 58 58" fill="none" xmlns="http://www.w3.org/2000/svg">
<rect x="1" y="1" width="56" height="56" rx="28" fill="white"/>
<rect x="1" y="1" width="56" height="56" rx="28" stroke="#0091E9" stroke-width="2"/>
<path d="M23.64 37C23.384 37 23.16 36.912 22.968 36.736C22.792 36.56 22.704 36.336 22.704 36.064C22.704 35.824 22.792 35.608 22.968 35.416L30.24 26.824C30.64 26.392 30.96 25.912 31.2 25.384C31.44 24.84 31.56 24.336 31.56 23.872C31.56 23.12 31.408 22.456 31.104 21.88C30.816 21.304 30.4 20.856 29.856 20.536C29.328 20.2 28.72 20.032 28.032 20.032C27.36 20.032 26.744 20.208 26.184 20.56C25.64 20.896 25.208 21.352 24.888 21.928C24.584 22.504 24.432 23.152 24.432 23.872C24.432 24.128 24.344 24.344 24.168 24.52C23.992 24.696 23.768 24.784 23.496 24.784C23.24 24.784 23.016 24.696 22.824 24.52C22.648 24.344 22.56 24.128 22.56 23.872C22.56 22.8 22.8 21.84 23.28 20.992C23.76 20.144 24.408 19.472 25.224 18.976C26.056 18.48 26.992 18.232 28.032 18.232C29.072 18.232 29.992 18.472 30.792 18.952C31.608 19.432 32.24 20.096 32.688 20.944C33.152 21.792 33.384 22.768 33.384 23.872C33.384 24.4 33.296 24.904 33.12 25.384C32.96 25.864 32.736 26.328 32.448 26.776C32.16 27.208 31.848 27.616 31.512 28L25.368 35.128H32.88C33.136 35.128 33.352 35.224 33.528 35.416C33.72 35.608 33.816 35.824 33.816 36.064C33.816 36.336 33.72 36.56 33.528 36.736C33.352 36.912 33.136 37 32.88 37H23.64Z" fill="#0091E9"/>
</svg>
