<svg width="58" height="58" viewBox="0 0 58 58" fill="none" xmlns="http://www.w3.org/2000/svg">
<rect x="1" y="1" width="56" height="56" rx="28" fill="white"/>
<rect x="1" y="1" width="56" height="56" rx="28" stroke="#0091E9" stroke-width="2"/>
<path d="M26.912 37C26.656 37 26.432 36.912 26.24 36.736C26.064 36.56 25.976 36.336 25.976 36.064C25.976 35.984 25.992 35.896 26.024 35.8C26.056 35.704 26.104 35.592 26.168 35.464L33.32 20.104H25.064C24.792 20.104 24.56 20.016 24.368 19.84C24.192 19.648 24.104 19.424 24.104 19.168C24.104 18.912 24.192 18.696 24.368 18.52C24.56 18.328 24.792 18.232 25.064 18.232H34.832C35.088 18.232 35.304 18.328 35.48 18.52C35.656 18.696 35.744 18.912 35.744 19.168C35.744 19.248 35.728 19.336 35.696 19.432C35.664 19.512 35.632 19.592 35.6 19.672L27.752 36.472C27.576 36.824 27.296 37 26.912 37Z" fill="#0091E9"/>
</svg>
